<svg width="677" height="256" viewBox="0 0 677 256" fill="none" xmlns="http://www.w3.org/2000/svg">
<g clip-path="url(#clip0_19_7)">
<path d="M178.128 136.92L213 156.333V80.7778L178.128 99.6667V136.92Z" fill="white"/>
<path d="M110.564 80.7778V136.92L144.891 156.333V174.698L178.128 194.636V156.333L144.891 136.92V62.4136L110.564 80.7778Z" fill="white"/>
<path d="M43 61.3642V136.92L77.3269 156.333V194.636L110.564 213V156.333L77.3269 136.92V43L43 61.3642Z" fill="white"/>
<path d="M178.128 136.92L213 156.333V80.7778L178.128 99.6667V136.92Z" stroke="white"/>
<path d="M110.564 80.7778V136.92L144.891 156.333V174.698L178.128 194.636V156.333L144.891 136.92V62.4136L110.564 80.7778Z" stroke="white"/>
<path d="M43 61.3642V136.92L77.3269 156.333V194.636L110.564 213V156.333L77.3269 136.92V43L43 61.3642Z" stroke="white"/>
<path d="M280.9 108V58.875H295.525C298.875 58.875 301.825 59.275 304.375 60.075C306.975 60.825 309 62.075 310.45 63.825C311.95 65.575 312.7 67.925 312.7 70.875C312.7 73.275 312 75.475 310.6 77.475C309.2 79.475 307.05 80.85 304.15 81.6V81.9C307.7 82.45 310.45 83.7 312.4 85.65C314.35 87.6 315.325 90.25 315.325 93.6C315.325 96.85 314.525 99.55 312.925 101.7C311.375 103.8 309.2 105.375 306.4 106.425C303.6 107.475 300.375 108 296.725 108H280.9ZM288.4 79.275H294.625C298.425 79.275 301.15 78.65 302.8 77.4C304.5 76.1 305.35 74.2 305.35 71.7C305.35 69.25 304.475 67.525 302.725 66.525C300.975 65.525 298.35 65.025 294.85 65.025H288.4V79.275ZM288.4 101.85H295.825C299.725 101.85 302.725 101.175 304.825 99.825C306.925 98.425 307.975 96.2 307.975 93.15C307.975 90.35 306.925 88.35 304.825 87.15C302.775 85.9 299.775 85.275 295.825 85.275H288.4V101.85ZM329.321 108V71.325H335.471L336.071 79.875H336.296C338.196 76.875 340.521 74.55 343.271 72.9C346.021 71.25 349.021 70.425 352.271 70.425C353.671 70.425 354.946 70.55 356.096 70.8C357.246 71.05 358.371 71.425 359.471 71.925L357.821 78.3C356.571 77.85 355.496 77.55 354.596 77.4C353.696 77.2 352.546 77.1 351.146 77.1C348.496 77.1 345.946 77.85 343.496 79.35C341.046 80.85 338.796 83.45 336.746 87.15V108H329.321ZM386.441 108.9C383.241 108.9 380.241 108.15 377.441 106.65C374.691 105.15 372.441 102.975 370.691 100.125C368.991 97.225 368.141 93.75 368.141 89.7C368.141 85.65 368.991 82.2 370.691 79.35C372.441 76.45 374.691 74.25 377.441 72.75C380.241 71.2 383.241 70.425 386.441 70.425C389.641 70.425 392.616 71.2 395.366 72.75C398.166 74.25 400.416 76.45 402.116 79.35C403.866 82.2 404.741 85.65 404.741 89.7C404.741 93.75 403.866 97.225 402.116 100.125C400.416 102.975 398.166 105.15 395.366 106.65C392.616 108.15 389.641 108.9 386.441 108.9ZM386.441 102.825C388.591 102.825 390.466 102.275 392.066 101.175C393.666 100.075 394.891 98.55 395.741 96.6C396.641 94.65 397.091 92.35 397.091 89.7C397.091 87.1 396.641 84.825 395.741 82.875C394.891 80.875 393.666 79.325 392.066 78.225C390.466 77.125 388.591 76.575 386.441 76.575C384.291 76.575 382.416 77.125 380.816 78.225C379.216 79.325 377.966 80.875 377.066 82.875C376.216 84.825 375.791 87.1 375.791 89.7C375.791 92.35 376.216 94.65 377.066 96.6C377.966 98.55 379.216 100.075 380.816 101.175C382.416 102.275 384.291 102.825 386.441 102.825ZM416.262 108V54.825H423.687V89.475H423.987L442.062 71.325H450.387L423.687 98.25V108H416.262ZM444.012 108L430.587 89.25L435.012 84.525L452.187 108H444.012ZM478.633 108.9C474.933 108.9 471.558 108.15 468.508 106.65C465.508 105.15 463.133 102.95 461.383 100.05C459.633 97.15 458.758 93.675 458.758 89.625C458.758 85.625 459.633 82.2 461.383 79.35C463.183 76.5 465.508 74.3 468.358 72.75C471.208 71.2 474.258 70.425 477.508 70.425C481.108 70.425 484.158 71.175 486.658 72.675C489.158 74.125 491.058 76.15 492.358 78.75C493.708 81.3 494.383 84.3 494.383 87.75C494.383 88.5 494.358 89.25 494.308 90C494.258 90.7 494.183 91.3 494.083 91.8H463.933V86.325H489.433L487.783 88.125C487.783 84.175 486.883 81.225 485.083 79.275C483.283 77.275 480.833 76.275 477.733 76.275C475.583 76.275 473.608 76.8 471.808 77.85C470.058 78.85 468.658 80.35 467.608 82.35C466.558 84.3 466.033 86.725 466.033 89.625C466.033 92.625 466.608 95.125 467.758 97.125C468.958 99.075 470.558 100.55 472.558 101.55C474.608 102.55 476.958 103.05 479.608 103.05C481.658 103.05 483.533 102.775 485.233 102.225C486.933 101.625 488.608 100.825 490.258 99.825L492.883 104.55C491.033 105.8 488.908 106.85 486.508 107.7C484.108 108.5 481.483 108.9 478.633 108.9ZM503.129 108L516.779 88.95L504.104 71.325H512.204L517.529 78.825C518.179 79.825 518.854 80.875 519.554 81.975C520.304 83.025 521.004 84.05 521.654 85.05H521.954C522.604 84.05 523.254 83 523.904 81.9C524.604 80.8 525.254 79.75 525.854 78.75L530.729 71.325H538.604L525.854 89.7L539.504 108H531.404L525.554 100.2C524.854 99.15 524.104 98.05 523.304 96.9C522.504 95.75 521.704 94.65 520.904 93.6H520.604C519.904 94.7 519.204 95.8 518.504 96.9C517.804 97.95 517.104 99.05 516.404 100.2L511.004 108H503.129ZM281.125 202V152.875H296.65C300.25 152.875 303.425 153.35 306.175 154.3C308.975 155.2 311.15 156.75 312.7 158.95C314.25 161.1 315.025 164 315.025 167.65C315.025 171.2 314.225 174.125 312.625 176.425C311.075 178.725 308.9 180.45 306.1 181.6C303.35 182.7 300.2 183.25 296.65 183.25H288.625V202H281.125ZM288.625 177.175H295.9C299.9 177.175 302.85 176.4 304.75 174.85C306.65 173.3 307.6 170.9 307.6 167.65C307.6 164.35 306.625 162.075 304.675 160.825C302.725 159.525 299.8 158.875 295.9 158.875H288.625V177.175ZM329.321 202V165.325H335.471L336.071 173.875H336.296C338.196 170.875 340.521 168.55 343.271 166.9C346.021 165.25 349.021 164.425 352.271 164.425C353.671 164.425 354.946 164.55 356.096 164.8C357.246 165.05 358.371 165.425 359.471 165.925L357.821 172.3C356.571 171.85 355.496 171.55 354.596 171.4C353.696 171.2 352.546 171.1 351.146 171.1C348.496 171.1 345.946 171.85 343.496 173.35C341.046 174.85 338.796 177.45 336.746 181.15V202H329.321ZM386.441 202.9C383.241 202.9 380.241 202.15 377.441 200.65C374.691 199.15 372.441 196.975 370.691 194.125C368.991 191.225 368.141 187.75 368.141 183.7C368.141 179.65 368.991 176.2 370.691 173.35C372.441 170.45 374.691 168.25 377.441 166.75C380.241 165.2 383.241 164.425 386.441 164.425C389.641 164.425 392.616 165.2 395.366 166.75C398.166 168.25 400.416 170.45 402.116 173.35C403.866 176.2 404.741 179.65 404.741 183.7C404.741 187.75 403.866 191.225 402.116 194.125C400.416 196.975 398.166 199.15 395.366 200.65C392.616 202.15 389.641 202.9 386.441 202.9ZM386.441 196.825C388.591 196.825 390.466 196.275 392.066 195.175C393.666 194.075 394.891 192.55 395.741 190.6C396.641 188.65 397.091 186.35 397.091 183.7C397.091 181.1 396.641 178.825 395.741 176.875C394.891 174.875 393.666 173.325 392.066 172.225C390.466 171.125 388.591 170.575 386.441 170.575C384.291 170.575 382.416 171.125 380.816 172.225C379.216 173.325 377.966 174.875 377.066 176.875C376.216 178.825 375.791 181.1 375.791 183.7C375.791 186.35 376.216 188.65 377.066 190.6C377.966 192.55 379.216 194.075 380.816 195.175C382.416 196.275 384.291 196.825 386.441 196.825ZM438.387 202.9C434.687 202.9 431.762 202.25 429.612 200.95C427.512 199.65 426.012 197.85 425.112 195.55C424.212 193.25 423.762 190.575 423.762 187.525V171.325H413.712V165.775L424.062 165.325L425.037 153.775H431.187V165.325H448.512V171.325H431.187V187.525C431.187 189.575 431.462 191.325 432.012 192.775C432.562 194.175 433.487 195.225 434.787 195.925C436.087 196.575 437.837 196.9 440.037 196.9C441.687 196.9 443.187 196.775 444.537 196.525C445.887 196.225 447.187 195.85 448.437 195.4L449.937 200.8C448.287 201.35 446.512 201.825 444.612 202.225C442.762 202.675 440.687 202.9 438.387 202.9ZM476.383 202.9C473.183 202.9 470.183 202.15 467.383 200.65C464.633 199.15 462.383 196.975 460.633 194.125C458.933 191.225 458.083 187.75 458.083 183.7C458.083 179.65 458.933 176.2 460.633 173.35C462.383 170.45 464.633 168.25 467.383 166.75C470.183 165.2 473.183 164.425 476.383 164.425C479.583 164.425 482.558 165.2 485.308 166.75C488.108 168.25 490.358 170.45 492.058 173.35C493.808 176.2 494.683 179.65 494.683 183.7C494.683 187.75 493.808 191.225 492.058 194.125C490.358 196.975 488.108 199.15 485.308 200.65C482.558 202.15 479.583 202.9 476.383 202.9ZM476.383 196.825C478.533 196.825 480.408 196.275 482.008 195.175C483.608 194.075 484.833 192.55 485.683 190.6C486.583 188.65 487.033 186.35 487.033 183.7C487.033 181.1 486.583 178.825 485.683 176.875C484.833 174.875 483.608 173.325 482.008 172.225C480.408 171.125 478.533 170.575 476.383 170.575C474.233 170.575 472.358 171.125 470.758 172.225C469.158 173.325 467.908 174.875 467.008 176.875C466.158 178.825 465.733 181.1 465.733 183.7C465.733 186.35 466.158 188.65 467.008 190.6C467.908 192.55 469.158 194.075 470.758 195.175C472.358 196.275 474.233 196.825 476.383 196.825ZM524.729 202.9C520.929 202.9 517.504 202.15 514.454 200.65C511.404 199.15 508.979 196.975 507.179 194.125C505.429 191.225 504.554 187.75 504.554 183.7C504.554 179.65 505.504 176.2 507.404 173.35C509.304 170.45 511.804 168.25 514.904 166.75C518.054 165.2 521.479 164.425 525.179 164.425C528.179 164.425 530.804 164.95 533.054 166C535.304 167 537.179 168.225 538.679 169.675L535.079 174.4C533.579 173.2 532.054 172.275 530.504 171.625C529.004 170.925 527.354 170.575 525.554 170.575C522.954 170.575 520.629 171.125 518.579 172.225C516.579 173.325 515.004 174.875 513.854 176.875C512.754 178.825 512.204 181.1 512.204 183.7C512.204 186.35 512.754 188.65 513.854 190.6C514.954 192.55 516.479 194.075 518.429 195.175C520.429 196.275 522.729 196.825 525.329 196.825C527.529 196.825 529.529 196.4 531.329 195.55C533.129 194.7 534.754 193.675 536.204 192.475L539.429 197.275C537.379 199.075 535.079 200.475 532.529 201.475C530.029 202.425 527.429 202.9 524.729 202.9ZM566.324 202.9C563.124 202.9 560.124 202.15 557.324 200.65C554.574 199.15 552.324 196.975 550.574 194.125C548.874 191.225 548.024 187.75 548.024 183.7C548.024 179.65 548.874 176.2 550.574 173.35C552.324 170.45 554.574 168.25 557.324 166.75C560.124 165.2 563.124 164.425 566.324 164.425C569.524 164.425 572.499 165.2 575.249 166.75C578.049 168.25 580.299 170.45 581.999 173.35C583.749 176.2 584.624 179.65 584.624 183.7C584.624 187.75 583.749 191.225 581.999 194.125C580.299 196.975 578.049 199.15 575.249 200.65C572.499 202.15 569.524 202.9 566.324 202.9ZM566.324 196.825C568.474 196.825 570.349 196.275 571.949 195.175C573.549 194.075 574.774 192.55 575.624 190.6C576.524 188.65 576.974 186.35 576.974 183.7C576.974 181.1 576.524 178.825 575.624 176.875C574.774 174.875 573.549 173.325 571.949 172.225C570.349 171.125 568.474 170.575 566.324 170.575C564.174 170.575 562.299 171.125 560.699 172.225C559.099 173.325 557.849 174.875 556.949 176.875C556.099 178.825 555.674 181.1 555.674 183.7C555.674 186.35 556.099 188.65 556.949 190.6C557.849 192.55 559.099 194.075 560.699 195.175C562.299 196.275 564.174 196.825 566.324 196.825ZM619.02 202.9C614.97 202.9 611.87 201.725 609.72 199.375C607.57 196.975 606.495 193.575 606.495 189.175V154.825H594.27V148.825H613.92V189.625C613.92 192.175 614.57 194.025 615.87 195.175C617.17 196.275 618.795 196.825 620.745 196.825C621.745 196.825 622.77 196.7 623.82 196.45C624.92 196.2 626.12 195.8 627.42 195.25L629.22 200.8C627.47 201.4 625.845 201.9 624.345 202.3C622.895 202.7 621.12 202.9 619.02 202.9Z" fill="white"/>
</g>
<defs>
<clipPath id="clip0_19_7">
<rect width="677" height="256" fill="white"/>
</clipPath>
</defs>
</svg>
