<svg id="canvas" height="auto" xmlns="http://www.w3.org/2000/svg" version="1.1" xmlns:xlink="http://www.w3.org/1999/xlink" viewBox="0 0 350 500" width="auto" style="width: auto; height: auto;"><rect width="350" height="500" fill="transparent"/><line x1="0" y1="16.666666666666668" x2="16.666666666666668" y2="0" stroke-linecap="square" stroke-width="3" stroke="#333333"/><line x1="16.666666666666668" y1="16.666666666666668" x2="33.333333333333336" y2="0" stroke-linecap="square" stroke-width="3" stroke="#333333"/><line x1="33.333333333333336" y1="0" x2="50" y2="16.666666666666668" stroke-linecap="square" stroke-width="3" stroke="#333333"/><line x1="50" y1="0" x2="66.66666666666667" y2="16.666666666666668" stroke-linecap="square" stroke-width="3" stroke="#333333"/><line x1="66.66666666666667" y1="16.666666666666668" x2="83.33333333333334" y2="0" stroke-linecap="square" stroke-width="3" stroke="#333333"/><line x1="83.33333333333334" y1="16.666666666666668" x2="100.00000000000001" y2="0" stroke-linecap="square" stroke-width="3" stroke="#333333"/><line x1="100.00000000000001" y1="0" x2="116.66666666666669" y2="16.666666666666668" stroke-linecap="square" stroke-width="3" stroke="#333333"/><line x1="116.66666666666669" y1="16.666666666666668" x2="133.33333333333334" y2="0" stroke-linecap="square" stroke-width="3" stroke="#333333"/><line x1="133.33333333333334" y1="0" x2="150" y2="16.666666666666668" stroke-linecap="square" stroke-width="3" stroke="#333333"/><line x1="150" y1="0" x2="166.66666666666666" y2="16.666666666666668" stroke-linecap="square" stroke-width="3" stroke="#333333"/><line x1="166.66666666666666" y1="0" x2="183.33333333333331" y2="16.666666666666668" stroke-linecap="square" stroke-width="3" stroke="#333333"/><line x1="183.33333333333331" y1="0" x2="199.99999999999997" y2="16.666666666666668" stroke-linecap="square" stroke-width="3" stroke="#333333"/><line x1="199.99999999999997" y1="0" x2="216.66666666666663" y2="16.666666666666668" stroke-linecap="square" stroke-width="3" stroke="#333333"/><line x1="216.66666666666663" y1="16.666666666666668" x2="233.3333333333333" y2="0" stroke-linecap="square" stroke-width="3" stroke="#333333"/><line x1="233.3333333333333" y1="16.666666666666668" x2="249.99999999999994" y2="0" stroke-linecap="square" stroke-width="3" stroke="#333333"/><line x1="249.99999999999994" y1="16.666666666666668" x2="266.66666666666663" y2="0" stroke-linecap="square" stroke-width="3" stroke="#333333"/><line x1="266.66666666666663" y1="16.666666666666668" x2="283.3333333333333" y2="0" stroke-linecap="square" stroke-width="3" stroke="#333333"/><line x1="283.3333333333333" y1="0" x2="300" y2="16.666666666666668" stroke-linecap="square" stroke-width="3" stroke="#333333"/><line x1="300" y1="16.666666666666668" x2="316.6666666666667" y2="0" stroke-linecap="square" stroke-width="3" stroke="#333333"/><line x1="316.6666666666667" y1="16.666666666666668" x2="333.33333333333337" y2="0" stroke-linecap="square" stroke-width="3" stroke="#333333"/><line x1="333.33333333333337" y1="0" x2="350.00000000000006" y2="16.666666666666668" stroke-linecap="square" stroke-width="3" stroke="#333333"/><line x1="0" y1="16.666666666666668" x2="16.666666666666668" y2="33.333333333333336" stroke-linecap="square" stroke-width="3" stroke="#333333"/><line x1="16.666666666666668" y1="33.333333333333336" x2="33.333333333333336" y2="16.666666666666668" stroke-linecap="square" stroke-width="3" stroke="#333333"/><line x1="33.333333333333336" y1="16.666666666666668" x2="50" y2="33.333333333333336" stroke-linecap="square" stroke-width="3" stroke="#333333"/><line x1="50" y1="16.666666666666668" x2="66.66666666666667" y2="33.333333333333336" stroke-linecap="square" stroke-width="3" stroke="#333333"/><line x1="66.66666666666667" y1="16.666666666666668" x2="83.33333333333334" y2="33.333333333333336" stroke-linecap="square" stroke-width="3" stroke="#333333"/><line x1="83.33333333333334" y1="16.666666666666668" x2="100.00000000000001" y2="33.333333333333336" stroke-linecap="square" stroke-width="3" stroke="#333333"/><line x1="100.00000000000001" y1="33.333333333333336" x2="116.66666666666669" y2="16.666666666666668" stroke-linecap="square" stroke-width="3" stroke="#333333"/><line x1="116.66666666666669" y1="16.666666666666668" x2="133.33333333333334" y2="33.333333333333336" stroke-linecap="square" stroke-width="3" stroke="#333333"/><line x1="133.33333333333334" y1="33.333333333333336" x2="150" y2="16.666666666666668" stroke-linecap="square" stroke-width="3" stroke="#333333"/><line x1="150" y1="33.333333333333336" x2="166.66666666666666" y2="16.666666666666668" stroke-linecap="square" stroke-width="3" stroke="#333333"/><line x1="166.66666666666666" y1="33.333333333333336" x2="183.33333333333331" y2="16.666666666666668" stroke-linecap="square" stroke-width="3" stroke="#333333"/><line x1="183.33333333333331" y1="16.666666666666668" x2="199.99999999999997" y2="33.333333333333336" stroke-linecap="square" stroke-width="3" stroke="#333333"/><line x1="199.99999999999997" y1="33.333333333333336" x2="216.66666666666663" y2="16.666666666666668" stroke-linecap="square" stroke-width="3" stroke="#333333"/><line x1="216.66666666666663" y1="33.333333333333336" x2="233.3333333333333" y2="16.666666666666668" stroke-linecap="square" stroke-width="3" stroke="#333333"/><line x1="233.3333333333333" y1="33.333333333333336" x2="249.99999999999994" y2="16.666666666666668" stroke-linecap="square" stroke-width="3" stroke="#333333"/><line x1="249.99999999999994" y1="16.666666666666668" x2="266.66666666666663" y2="33.333333333333336" stroke-linecap="square" stroke-width="3" stroke="#333333"/><line x1="266.66666666666663" y1="33.333333333333336" x2="283.3333333333333" y2="16.666666666666668" stroke-linecap="square" stroke-width="3" stroke="#333333"/><line x1="283.3333333333333" y1="16.666666666666668" x2="300" y2="33.333333333333336" stroke-linecap="square" stroke-width="3" stroke="#333333"/><line x1="300" y1="16.666666666666668" x2="316.6666666666667" y2="33.333333333333336" stroke-linecap="square" stroke-width="3" stroke="#333333"/><line x1="316.6666666666667" y1="33.333333333333336" x2="333.33333333333337" y2="16.666666666666668" stroke-linecap="square" stroke-width="3" stroke="#333333"/><line x1="333.33333333333337" y1="16.666666666666668" x2="350.00000000000006" y2="33.333333333333336" stroke-linecap="square" stroke-width="3" stroke="#333333"/><line x1="0" y1="33.333333333333336" x2="16.666666666666668" y2="50" stroke-linecap="square" stroke-width="3" stroke="#333333"/><line x1="16.666666666666668" y1="33.333333333333336" x2="33.333333333333336" y2="50" stroke-linecap="square" stroke-width="3" stroke="#333333"/><line x1="33.333333333333336" y1="33.333333333333336" x2="50" y2="50" stroke-linecap="square" stroke-width="3" stroke="#333333"/><line x1="50" y1="50" x2="66.66666666666667" y2="33.333333333333336" stroke-linecap="square" stroke-width="3" stroke="#333333"/><line x1="66.66666666666667" y1="50" x2="83.33333333333334" y2="33.333333333333336" stroke-linecap="square" stroke-width="3" stroke="#333333"/><line x1="83.33333333333334" y1="33.333333333333336" x2="100.00000000000001" y2="50" stroke-linecap="square" stroke-width="3" stroke="#333333"/><line x1="100.00000000000001" y1="33.333333333333336" x2="116.66666666666669" y2="50" stroke-linecap="square" stroke-width="3" stroke="#333333"/><line x1="116.66666666666669" y1="33.333333333333336" x2="133.33333333333334" y2="50" stroke-linecap="square" stroke-width="3" stroke="#333333"/><line x1="133.33333333333334" y1="50" x2="150" y2="33.333333333333336" stroke-linecap="square" stroke-width="3" stroke="#333333"/><line x1="150" y1="50" x2="166.66666666666666" y2="33.333333333333336" stroke-linecap="square" stroke-width="3" stroke="#333333"/><line x1="166.66666666666666" y1="50" x2="183.33333333333331" y2="33.333333333333336" stroke-linecap="square" stroke-width="3" stroke="#333333"/><line x1="183.33333333333331" y1="50" x2="199.99999999999997" y2="33.333333333333336" stroke-linecap="square" stroke-width="3" stroke="#333333"/><line x1="199.99999999999997" y1="33.333333333333336" x2="216.66666666666663" y2="50" stroke-linecap="square" stroke-width="3" stroke="#333333"/><line x1="216.66666666666663" y1="50" x2="233.3333333333333" y2="33.333333333333336" stroke-linecap="square" stroke-width="3" stroke="#333333"/><line x1="233.3333333333333" y1="33.333333333333336" x2="249.99999999999994" y2="50" stroke-linecap="square" stroke-width="3" stroke="#333333"/><line x1="249.99999999999994" y1="50" x2="266.66666666666663" y2="33.333333333333336" stroke-linecap="square" stroke-width="3" stroke="#333333"/><line x1="266.66666666666663" y1="50" x2="283.3333333333333" y2="33.333333333333336" stroke-linecap="square" stroke-width="3" stroke="#333333"/><line x1="283.3333333333333" y1="33.333333333333336" x2="300" y2="50" stroke-linecap="square" stroke-width="3" stroke="#333333"/><line x1="300" y1="33.333333333333336" x2="316.6666666666667" y2="50" stroke-linecap="square" stroke-width="3" stroke="#333333"/><line x1="316.6666666666667" y1="33.333333333333336" x2="333.33333333333337" y2="50" stroke-linecap="square" stroke-width="3" stroke="#333333"/><line x1="333.33333333333337" y1="33.333333333333336" x2="350.00000000000006" y2="50" stroke-linecap="square" stroke-width="3" stroke="#333333"/><line x1="0" y1="50" x2="16.666666666666668" y2="66.66666666666667" stroke-linecap="square" stroke-width="3" stroke="#333333"/><line x1="16.666666666666668" y1="66.66666666666667" x2="33.333333333333336" y2="50" stroke-linecap="square" stroke-width="3" stroke="#333333"/><line x1="33.333333333333336" y1="66.66666666666667" x2="50" y2="50" stroke-linecap="square" stroke-width="3" stroke="#333333"/><line x1="50" y1="50" x2="66.66666666666667" y2="66.66666666666667" stroke-linecap="square" stroke-width="3" stroke="#333333"/><line x1="66.66666666666667" y1="50" x2="83.33333333333334" y2="66.66666666666667" stroke-linecap="square" stroke-width="3" stroke="#333333"/><line x1="83.33333333333334" y1="50" x2="100.00000000000001" y2="66.66666666666667" stroke-linecap="square" stroke-width="3" stroke="#333333"/><line x1="100.00000000000001" y1="66.66666666666667" x2="116.66666666666669" y2="50" stroke-linecap="square" stroke-width="3" stroke="#333333"/><line x1="116.66666666666669" y1="50" x2="133.33333333333334" y2="66.66666666666667" stroke-linecap="square" stroke-width="3" stroke="#333333"/><line x1="133.33333333333334" y1="50" x2="150" y2="66.66666666666667" stroke-linecap="square" stroke-width="3" stroke="#333333"/><line x1="150" y1="50" x2="166.66666666666666" y2="66.66666666666667" stroke-linecap="square" stroke-width="3" stroke="#333333"/><line x1="166.66666666666666" y1="66.66666666666667" x2="183.33333333333331" y2="50" stroke-linecap="square" stroke-width="3" stroke="#333333"/><line x1="183.33333333333331" y1="66.66666666666667" x2="199.99999999999997" y2="50" stroke-linecap="square" stroke-width="3" stroke="#333333"/><line x1="199.99999999999997" y1="50" x2="216.66666666666663" y2="66.66666666666667" stroke-linecap="square" stroke-width="3" stroke="#333333"/><line x1="216.66666666666663" y1="66.66666666666667" x2="233.3333333333333" y2="50" stroke-linecap="square" stroke-width="3" stroke="#333333"/><line x1="233.3333333333333" y1="50" x2="249.99999999999994" y2="66.66666666666667" stroke-linecap="square" stroke-width="3" stroke="#333333"/><line x1="249.99999999999994" y1="50" x2="266.66666666666663" y2="66.66666666666667" stroke-linecap="square" stroke-width="3" stroke="#333333"/><line x1="266.66666666666663" y1="50" x2="283.3333333333333" y2="66.66666666666667" stroke-linecap="square" stroke-width="3" stroke="#333333"/><line x1="283.3333333333333" y1="50" x2="300" y2="66.66666666666667" stroke-linecap="square" stroke-width="3" stroke="#333333"/><line x1="300" y1="50" x2="316.6666666666667" y2="66.66666666666667" stroke-linecap="square" stroke-width="3" stroke="#333333"/><line x1="316.6666666666667" y1="66.66666666666667" x2="333.33333333333337" y2="50" stroke-linecap="square" stroke-width="3" stroke="#333333"/><line x1="333.33333333333337" y1="66.66666666666667" x2="350.00000000000006" y2="50" stroke-linecap="square" stroke-width="3" stroke="#333333"/><line x1="0" y1="66.66666666666667" x2="16.666666666666668" y2="83.33333333333334" stroke-linecap="square" stroke-width="3" stroke="#333333"/><line x1="16.666666666666668" y1="66.66666666666667" x2="33.333333333333336" y2="83.33333333333334" stroke-linecap="square" stroke-width="3" stroke="#333333"/><line x1="33.333333333333336" y1="83.33333333333334" x2="50" y2="66.66666666666667" stroke-linecap="square" stroke-width="3" stroke="#333333"/><line x1="50" y1="66.66666666666667" x2="66.66666666666667" y2="83.33333333333334" stroke-linecap="square" stroke-width="3" stroke="#333333"/><line x1="66.66666666666667" y1="83.33333333333334" x2="83.33333333333334" y2="66.66666666666667" stroke-linecap="square" stroke-width="3" stroke="#333333"/><line x1="83.33333333333334" y1="83.33333333333334" x2="100.00000000000001" y2="66.66666666666667" stroke-linecap="square" stroke-width="3" stroke="#333333"/><line x1="100.00000000000001" y1="83.33333333333334" x2="116.66666666666669" y2="66.66666666666667" stroke-linecap="square" stroke-width="3" stroke="#333333"/><line x1="116.66666666666669" y1="66.66666666666667" x2="133.33333333333334" y2="83.33333333333334" stroke-linecap="square" stroke-width="3" stroke="#333333"/><line x1="133.33333333333334" y1="83.33333333333334" x2="150" y2="66.66666666666667" stroke-linecap="square" stroke-width="3" stroke="#333333"/><line x1="150" y1="83.33333333333334" x2="166.66666666666666" y2="66.66666666666667" stroke-linecap="square" stroke-width="3" stroke="#333333"/><line x1="166.66666666666666" y1="83.33333333333334" x2="183.33333333333331" y2="66.66666666666667" stroke-linecap="square" stroke-width="3" stroke="#333333"/><line x1="183.33333333333331" y1="83.33333333333334" x2="199.99999999999997" y2="66.66666666666667" stroke-linecap="square" stroke-width="3" stroke="#333333"/><line x1="199.99999999999997" y1="83.33333333333334" x2="216.66666666666663" y2="66.66666666666667" stroke-linecap="square" stroke-width="3" stroke="#333333"/><line x1="216.66666666666663" y1="83.33333333333334" x2="233.3333333333333" y2="66.66666666666667" stroke-linecap="square" stroke-width="3" stroke="#333333"/><line x1="233.3333333333333" y1="66.66666666666667" x2="249.99999999999994" y2="83.33333333333334" stroke-linecap="square" stroke-width="3" stroke="#333333"/><line x1="249.99999999999994" y1="66.66666666666667" x2="266.66666666666663" y2="83.33333333333334" stroke-linecap="square" stroke-width="3" stroke="#333333"/><line x1="266.66666666666663" y1="66.66666666666667" x2="283.3333333333333" y2="83.33333333333334" stroke-linecap="square" stroke-width="3" stroke="#333333"/><line x1="283.3333333333333" y1="66.66666666666667" x2="300" y2="83.33333333333334" stroke-linecap="square" stroke-width="3" stroke="#333333"/><line x1="300" y1="66.66666666666667" x2="316.6666666666667" y2="83.33333333333334" stroke-linecap="square" stroke-width="3" stroke="#333333"/><line x1="316.6666666666667" y1="66.66666666666667" x2="333.33333333333337" y2="83.33333333333334" stroke-linecap="square" stroke-width="3" stroke="#333333"/><line x1="333.33333333333337" y1="66.66666666666667" x2="350.00000000000006" y2="83.33333333333334" stroke-linecap="square" stroke-width="3" stroke="#333333"/><line x1="0" y1="83.33333333333334" x2="16.666666666666668" y2="100.00000000000001" stroke-linecap="square" stroke-width="3" stroke="#333333"/><line x1="16.666666666666668" y1="83.33333333333334" x2="33.333333333333336" y2="100.00000000000001" stroke-linecap="square" stroke-width="3" stroke="#333333"/><line x1="33.333333333333336" y1="100.00000000000001" x2="50" y2="83.33333333333334" stroke-linecap="square" stroke-width="3" stroke="#333333"/><line x1="50" y1="100.00000000000001" x2="66.66666666666667" y2="83.33333333333334" stroke-linecap="square" stroke-width="3" stroke="#333333"/><line x1="66.66666666666667" y1="83.33333333333334" x2="83.33333333333334" y2="100.00000000000001" stroke-linecap="square" stroke-width="3" stroke="#333333"/><line x1="83.33333333333334" y1="100.00000000000001" x2="100.00000000000001" y2="83.33333333333334" stroke-linecap="square" stroke-width="3" stroke="#333333"/><line x1="100.00000000000001" y1="100.00000000000001" x2="116.66666666666669" y2="83.33333333333334" stroke-linecap="square" stroke-width="3" stroke="#333333"/><line x1="116.66666666666669" y1="83.33333333333334" x2="133.33333333333334" y2="100.00000000000001" stroke-linecap="square" stroke-width="3" stroke="#333333"/><line x1="133.33333333333334" y1="100.00000000000001" x2="150" y2="83.33333333333334" stroke-linecap="square" stroke-width="3" stroke="#333333"/><line x1="150" y1="83.33333333333334" x2="166.66666666666666" y2="100.00000000000001" stroke-linecap="square" stroke-width="3" stroke="#333333"/><line x1="166.66666666666666" y1="100.00000000000001" x2="183.33333333333331" y2="83.33333333333334" stroke-linecap="square" stroke-width="3" stroke="#333333"/><line x1="183.33333333333331" y1="100.00000000000001" x2="199.99999999999997" y2="83.33333333333334" stroke-linecap="square" stroke-width="3" stroke="#333333"/><line x1="199.99999999999997" y1="100.00000000000001" x2="216.66666666666663" y2="83.33333333333334" stroke-linecap="square" stroke-width="3" stroke="#333333"/><line x1="216.66666666666663" y1="83.33333333333334" x2="233.3333333333333" y2="100.00000000000001" stroke-linecap="square" stroke-width="3" stroke="#333333"/><line x1="233.3333333333333" y1="83.33333333333334" x2="249.99999999999994" y2="100.00000000000001" stroke-linecap="square" stroke-width="3" stroke="#333333"/><line x1="249.99999999999994" y1="100.00000000000001" x2="266.66666666666663" y2="83.33333333333334" stroke-linecap="square" stroke-width="3" stroke="#333333"/><line x1="266.66666666666663" y1="100.00000000000001" x2="283.3333333333333" y2="83.33333333333334" stroke-linecap="square" stroke-width="3" stroke="#333333"/><line x1="283.3333333333333" y1="100.00000000000001" x2="300" y2="83.33333333333334" stroke-linecap="square" stroke-width="3" stroke="#333333"/><line x1="300" y1="100.00000000000001" x2="316.6666666666667" y2="83.33333333333334" stroke-linecap="square" stroke-width="3" stroke="#333333"/><line x1="316.6666666666667" y1="100.00000000000001" x2="333.33333333333337" y2="83.33333333333334" stroke-linecap="square" stroke-width="3" stroke="#333333"/><line x1="333.33333333333337" y1="83.33333333333334" x2="350.00000000000006" y2="100.00000000000001" stroke-linecap="square" stroke-width="3" stroke="#333333"/><line x1="0" y1="100.00000000000001" x2="16.666666666666668" y2="116.66666666666669" stroke-linecap="square" stroke-width="3" stroke="#333333"/><line x1="16.666666666666668" y1="116.66666666666669" x2="33.333333333333336" y2="100.00000000000001" stroke-linecap="square" stroke-width="3" stroke="#333333"/><line x1="33.333333333333336" y1="116.66666666666669" x2="50" y2="100.00000000000001" stroke-linecap="square" stroke-width="3" stroke="#333333"/><line x1="50" y1="116.66666666666669" x2="66.66666666666667" y2="100.00000000000001" stroke-linecap="square" stroke-width="3" stroke="#333333"/><line x1="66.66666666666667" y1="100.00000000000001" x2="83.33333333333334" y2="116.66666666666669" stroke-linecap="square" stroke-width="3" stroke="#333333"/><line x1="83.33333333333334" y1="100.00000000000001" x2="100.00000000000001" y2="116.66666666666669" stroke-linecap="square" stroke-width="3" stroke="#333333"/><line x1="100.00000000000001" y1="100.00000000000001" x2="116.66666666666669" y2="116.66666666666669" stroke-linecap="square" stroke-width="3" stroke="#333333"/><line x1="116.66666666666669" y1="116.66666666666669" x2="133.33333333333334" y2="100.00000000000001" stroke-linecap="square" stroke-width="3" stroke="#333333"/><line x1="133.33333333333334" y1="116.66666666666669" x2="150" y2="100.00000000000001" stroke-linecap="square" stroke-width="3" stroke="#333333"/><line x1="150" y1="100.00000000000001" x2="166.66666666666666" y2="116.66666666666669" stroke-linecap="square" stroke-width="3" stroke="#333333"/><line x1="166.66666666666666" y1="100.00000000000001" x2="183.33333333333331" y2="116.66666666666669" stroke-linecap="square" stroke-width="3" stroke="#333333"/><line x1="183.33333333333331" y1="116.66666666666669" x2="199.99999999999997" y2="100.00000000000001" stroke-linecap="square" stroke-width="3" stroke="#333333"/><line x1="199.99999999999997" y1="100.00000000000001" x2="216.66666666666663" y2="116.66666666666669" stroke-linecap="square" stroke-width="3" stroke="#333333"/><line x1="216.66666666666663" y1="116.66666666666669" x2="233.3333333333333" y2="100.00000000000001" stroke-linecap="square" stroke-width="3" stroke="#333333"/><line x1="233.3333333333333" y1="100.00000000000001" x2="249.99999999999994" y2="116.66666666666669" stroke-linecap="square" stroke-width="3" stroke="#333333"/><line x1="249.99999999999994" y1="116.66666666666669" x2="266.66666666666663" y2="100.00000000000001" stroke-linecap="square" stroke-width="3" stroke="#333333"/><line x1="266.66666666666663" y1="116.66666666666669" x2="283.3333333333333" y2="100.00000000000001" stroke-linecap="square" stroke-width="3" stroke="#333333"/><line x1="283.3333333333333" y1="116.66666666666669" x2="300" y2="100.00000000000001" stroke-linecap="square" stroke-width="3" stroke="#333333"/><line x1="300" y1="100.00000000000001" x2="316.6666666666667" y2="116.66666666666669" stroke-linecap="square" stroke-width="3" stroke="#333333"/><line x1="316.6666666666667" y1="100.00000000000001" x2="333.33333333333337" y2="116.66666666666669" stroke-linecap="square" stroke-width="3" stroke="#333333"/><line x1="333.33333333333337" y1="100.00000000000001" x2="350.00000000000006" y2="116.66666666666669" stroke-linecap="square" stroke-width="3" stroke="#333333"/><line x1="0" y1="133.33333333333334" x2="16.666666666666668" y2="116.66666666666669" stroke-linecap="square" stroke-width="3" stroke="#333333"/><line x1="16.666666666666668" y1="116.66666666666669" x2="33.333333333333336" y2="133.33333333333334" stroke-linecap="square" stroke-width="3" stroke="#333333"/><line x1="33.333333333333336" y1="116.66666666666669" x2="50" y2="133.33333333333334" stroke-linecap="square" stroke-width="3" stroke="#333333"/><line x1="50" y1="133.33333333333334" x2="66.66666666666667" y2="116.66666666666669" stroke-linecap="square" stroke-width="3" stroke="#333333"/><line x1="66.66666666666667" y1="133.33333333333334" x2="83.33333333333334" y2="116.66666666666669" stroke-linecap="square" stroke-width="3" stroke="#333333"/><line x1="83.33333333333334" y1="116.66666666666669" x2="100.00000000000001" y2="133.33333333333334" stroke-linecap="square" stroke-width="3" stroke="#333333"/><line x1="100.00000000000001" y1="116.66666666666669" x2="116.66666666666669" y2="133.33333333333334" stroke-linecap="square" stroke-width="3" stroke="#333333"/><line x1="116.66666666666669" y1="133.33333333333334" x2="133.33333333333334" y2="116.66666666666669" stroke-linecap="square" stroke-width="3" stroke="#333333"/><line x1="133.33333333333334" y1="116.66666666666669" x2="150" y2="133.33333333333334" stroke-linecap="square" stroke-width="3" stroke="#333333"/><line x1="150" y1="133.33333333333334" x2="166.66666666666666" y2="116.66666666666669" stroke-linecap="square" stroke-width="3" stroke="#333333"/><line x1="166.66666666666666" y1="133.33333333333334" x2="183.33333333333331" y2="116.66666666666669" stroke-linecap="square" stroke-width="3" stroke="#333333"/><line x1="183.33333333333331" y1="133.33333333333334" x2="199.99999999999997" y2="116.66666666666669" stroke-linecap="square" stroke-width="3" stroke="#333333"/><line x1="199.99999999999997" y1="116.66666666666669" x2="216.66666666666663" y2="133.33333333333334" stroke-linecap="square" stroke-width="3" stroke="#333333"/><line x1="216.66666666666663" y1="133.33333333333334" x2="233.3333333333333" y2="116.66666666666669" stroke-linecap="square" stroke-width="3" stroke="#333333"/><line x1="233.3333333333333" y1="116.66666666666669" x2="249.99999999999994" y2="133.33333333333334" stroke-linecap="square" stroke-width="3" stroke="#333333"/><line x1="249.99999999999994" y1="116.66666666666669" x2="266.66666666666663" y2="133.33333333333334" stroke-linecap="square" stroke-width="3" stroke="#333333"/><line x1="266.66666666666663" y1="116.66666666666669" x2="283.3333333333333" y2="133.33333333333334" stroke-linecap="square" stroke-width="3" stroke="#333333"/><line x1="283.3333333333333" y1="116.66666666666669" x2="300" y2="133.33333333333334" stroke-linecap="square" stroke-width="3" stroke="#333333"/><line x1="300" y1="133.33333333333334" x2="316.6666666666667" y2="116.66666666666669" stroke-linecap="square" stroke-width="3" stroke="#333333"/><line x1="316.6666666666667" y1="133.33333333333334" x2="333.33333333333337" y2="116.66666666666669" stroke-linecap="square" stroke-width="3" stroke="#333333"/><line x1="333.33333333333337" y1="133.33333333333334" x2="350.00000000000006" y2="116.66666666666669" stroke-linecap="square" stroke-width="3" stroke="#333333"/><line x1="0" y1="133.33333333333334" x2="16.666666666666668" y2="150" stroke-linecap="square" stroke-width="3" stroke="#333333"/><line x1="16.666666666666668" y1="133.33333333333334" x2="33.333333333333336" y2="150" stroke-linecap="square" stroke-width="3" stroke="#333333"/><line x1="33.333333333333336" y1="150" x2="50" y2="133.33333333333334" stroke-linecap="square" stroke-width="3" stroke="#333333"/><line x1="50" y1="150" x2="66.66666666666667" y2="133.33333333333334" stroke-linecap="square" stroke-width="3" stroke="#333333"/><line x1="66.66666666666667" y1="133.33333333333334" x2="83.33333333333334" y2="150" stroke-linecap="square" stroke-width="3" stroke="#333333"/><line x1="83.33333333333334" y1="150" x2="100.00000000000001" y2="133.33333333333334" stroke-linecap="square" stroke-width="3" stroke="#333333"/><line x1="100.00000000000001" y1="133.33333333333334" x2="116.66666666666669" y2="150" stroke-linecap="square" stroke-width="3" stroke="#333333"/><line x1="116.66666666666669" y1="150" x2="133.33333333333334" y2="133.33333333333334" stroke-linecap="square" stroke-width="3" stroke="#333333"/><line x1="133.33333333333334" y1="150" x2="150" y2="133.33333333333334" stroke-linecap="square" stroke-width="3" stroke="#333333"/><line x1="150" y1="150" x2="166.66666666666666" y2="133.33333333333334" stroke-linecap="square" stroke-width="3" stroke="#333333"/><line x1="166.66666666666666" y1="133.33333333333334" x2="183.33333333333331" y2="150" stroke-linecap="square" stroke-width="3" stroke="#333333"/><line x1="183.33333333333331" y1="150" x2="199.99999999999997" y2="133.33333333333334" stroke-linecap="square" stroke-width="3" stroke="#333333"/><line x1="199.99999999999997" y1="150" x2="216.66666666666663" y2="133.33333333333334" stroke-linecap="square" stroke-width="3" stroke="#333333"/><line x1="216.66666666666663" y1="150" x2="233.3333333333333" y2="133.33333333333334" stroke-linecap="square" stroke-width="3" stroke="#333333"/><line x1="233.3333333333333" y1="150" x2="249.99999999999994" y2="133.33333333333334" stroke-linecap="square" stroke-width="3" stroke="#333333"/><line x1="249.99999999999994" y1="150" x2="266.66666666666663" y2="133.33333333333334" stroke-linecap="square" stroke-width="3" stroke="#333333"/><line x1="266.66666666666663" y1="133.33333333333334" x2="283.3333333333333" y2="150" stroke-linecap="square" stroke-width="3" stroke="#333333"/><line x1="283.3333333333333" y1="133.33333333333334" x2="300" y2="150" stroke-linecap="square" stroke-width="3" stroke="#333333"/><line x1="300" y1="150" x2="316.6666666666667" y2="133.33333333333334" stroke-linecap="square" stroke-width="3" stroke="#333333"/><line x1="316.6666666666667" y1="150" x2="333.33333333333337" y2="133.33333333333334" stroke-linecap="square" stroke-width="3" stroke="#333333"/><line x1="333.33333333333337" y1="150" x2="350.00000000000006" y2="133.33333333333334" stroke-linecap="square" stroke-width="3" stroke="#333333"/><line x1="0" y1="150" x2="16.666666666666668" y2="166.66666666666666" stroke-linecap="square" stroke-width="3" stroke="#333333"/><line x1="16.666666666666668" y1="150" x2="33.333333333333336" y2="166.66666666666666" stroke-linecap="square" stroke-width="3" stroke="#333333"/><line x1="33.333333333333336" y1="150" x2="50" y2="166.66666666666666" stroke-linecap="square" stroke-width="3" stroke="#333333"/><line x1="50" y1="166.66666666666666" x2="66.66666666666667" y2="150" stroke-linecap="square" stroke-width="3" stroke="#333333"/><line x1="66.66666666666667" y1="150" x2="83.33333333333334" y2="166.66666666666666" stroke-linecap="square" stroke-width="3" stroke="#333333"/><line x1="83.33333333333334" y1="150" x2="100.00000000000001" y2="166.66666666666666" stroke-linecap="square" stroke-width="3" stroke="#333333"/><line x1="100.00000000000001" y1="150" x2="116.66666666666669" y2="166.66666666666666" stroke-linecap="square" stroke-width="3" stroke="#333333"/><line x1="116.66666666666669" y1="150" x2="133.33333333333334" y2="166.66666666666666" stroke-linecap="square" stroke-width="3" stroke="#333333"/><line x1="133.33333333333334" y1="166.66666666666666" x2="150" y2="150" stroke-linecap="square" stroke-width="3" stroke="#333333"/><line x1="150" y1="150" x2="166.66666666666666" y2="166.66666666666666" stroke-linecap="square" stroke-width="3" stroke="#333333"/><line x1="166.66666666666666" y1="166.66666666666666" x2="183.33333333333331" y2="150" stroke-linecap="square" stroke-width="3" stroke="#333333"/><line x1="183.33333333333331" y1="166.66666666666666" x2="199.99999999999997" y2="150" stroke-linecap="square" stroke-width="3" stroke="#333333"/><line x1="199.99999999999997" y1="166.66666666666666" x2="216.66666666666663" y2="150" stroke-linecap="square" stroke-width="3" stroke="#333333"/><line x1="216.66666666666663" y1="150" x2="233.3333333333333" y2="166.66666666666666" stroke-linecap="square" stroke-width="3" stroke="#333333"/><line x1="233.3333333333333" y1="166.66666666666666" x2="249.99999999999994" y2="150" stroke-linecap="square" stroke-width="3" stroke="#333333"/><line x1="249.99999999999994" y1="166.66666666666666" x2="266.66666666666663" y2="150" stroke-linecap="square" stroke-width="3" stroke="#333333"/><line x1="266.66666666666663" y1="150" x2="283.3333333333333" y2="166.66666666666666" stroke-linecap="square" stroke-width="3" stroke="#333333"/><line x1="283.3333333333333" y1="150" x2="300" y2="166.66666666666666" stroke-linecap="square" stroke-width="3" stroke="#333333"/><line x1="300" y1="166.66666666666666" x2="316.6666666666667" y2="150" stroke-linecap="square" stroke-width="3" stroke="#333333"/><line x1="316.6666666666667" y1="150" x2="333.33333333333337" y2="166.66666666666666" stroke-linecap="square" stroke-width="3" stroke="#333333"/><line x1="333.33333333333337" y1="150" x2="350.00000000000006" y2="166.66666666666666" stroke-linecap="square" stroke-width="3" stroke="#333333"/><line x1="0" y1="183.33333333333331" x2="16.666666666666668" y2="166.66666666666666" stroke-linecap="square" stroke-width="3" stroke="#333333"/><line x1="16.666666666666668" y1="183.33333333333331" x2="33.333333333333336" y2="166.66666666666666" stroke-linecap="square" stroke-width="3" stroke="#333333"/><line x1="33.333333333333336" y1="166.66666666666666" x2="50" y2="183.33333333333331" stroke-linecap="square" stroke-width="3" stroke="#333333"/><line x1="50" y1="183.33333333333331" x2="66.66666666666667" y2="166.66666666666666" stroke-linecap="square" stroke-width="3" stroke="#333333"/><line x1="66.66666666666667" y1="166.66666666666666" x2="83.33333333333334" y2="183.33333333333331" stroke-linecap="square" stroke-width="3" stroke="#333333"/><line x1="83.33333333333334" y1="166.66666666666666" x2="100.00000000000001" y2="183.33333333333331" stroke-linecap="square" stroke-width="3" stroke="#333333"/><line x1="100.00000000000001" y1="183.33333333333331" x2="116.66666666666669" y2="166.66666666666666" stroke-linecap="square" stroke-width="3" stroke="#333333"/><line x1="116.66666666666669" y1="183.33333333333331" x2="133.33333333333334" y2="166.66666666666666" stroke-linecap="square" stroke-width="3" stroke="#333333"/><line x1="133.33333333333334" y1="166.66666666666666" x2="150" y2="183.33333333333331" stroke-linecap="square" stroke-width="3" stroke="#333333"/><line x1="150" y1="183.33333333333331" x2="166.66666666666666" y2="166.66666666666666" stroke-linecap="square" stroke-width="3" stroke="#333333"/><line x1="166.66666666666666" y1="183.33333333333331" x2="183.33333333333331" y2="166.66666666666666" stroke-linecap="square" stroke-width="3" stroke="#333333"/><line x1="183.33333333333331" y1="183.33333333333331" x2="199.99999999999997" y2="166.66666666666666" stroke-linecap="square" stroke-width="3" stroke="#333333"/><line x1="199.99999999999997" y1="166.66666666666666" x2="216.66666666666663" y2="183.33333333333331" stroke-linecap="square" stroke-width="3" stroke="#333333"/><line x1="216.66666666666663" y1="183.33333333333331" x2="233.3333333333333" y2="166.66666666666666" stroke-linecap="square" stroke-width="3" stroke="#333333"/><line x1="233.3333333333333" y1="183.33333333333331" x2="249.99999999999994" y2="166.66666666666666" stroke-linecap="square" stroke-width="3" stroke="#333333"/><line x1="249.99999999999994" y1="166.66666666666666" x2="266.66666666666663" y2="183.33333333333331" stroke-linecap="square" stroke-width="3" stroke="#333333"/><line x1="266.66666666666663" y1="183.33333333333331" x2="283.3333333333333" y2="166.66666666666666" stroke-linecap="square" stroke-width="3" stroke="#333333"/><line x1="283.3333333333333" y1="166.66666666666666" x2="300" y2="183.33333333333331" stroke-linecap="square" stroke-width="3" stroke="#333333"/><line x1="300" y1="183.33333333333331" x2="316.6666666666667" y2="166.66666666666666" stroke-linecap="square" stroke-width="3" stroke="#333333"/><line x1="316.6666666666667" y1="166.66666666666666" x2="333.33333333333337" y2="183.33333333333331" stroke-linecap="square" stroke-width="3" stroke="#333333"/><line x1="333.33333333333337" y1="166.66666666666666" x2="350.00000000000006" y2="183.33333333333331" stroke-linecap="square" stroke-width="3" stroke="#333333"/><line x1="0" y1="199.99999999999997" x2="16.666666666666668" y2="183.33333333333331" stroke-linecap="square" stroke-width="3" stroke="#333333"/><line x1="16.666666666666668" y1="199.99999999999997" x2="33.333333333333336" y2="183.33333333333331" stroke-linecap="square" stroke-width="3" stroke="#333333"/><line x1="33.333333333333336" y1="199.99999999999997" x2="50" y2="183.33333333333331" stroke-linecap="square" stroke-width="3" stroke="#333333"/><line x1="50" y1="199.99999999999997" x2="66.66666666666667" y2="183.33333333333331" stroke-linecap="square" stroke-width="3" stroke="#333333"/><line x1="66.66666666666667" y1="199.99999999999997" x2="83.33333333333334" y2="183.33333333333331" stroke-linecap="square" stroke-width="3" stroke="#333333"/><line x1="83.33333333333334" y1="199.99999999999997" x2="100.00000000000001" y2="183.33333333333331" stroke-linecap="square" stroke-width="3" stroke="#333333"/><line x1="100.00000000000001" y1="199.99999999999997" x2="116.66666666666669" y2="183.33333333333331" stroke-linecap="square" stroke-width="3" stroke="#333333"/><line x1="116.66666666666669" y1="199.99999999999997" x2="133.33333333333334" y2="183.33333333333331" stroke-linecap="square" stroke-width="3" stroke="#333333"/><line x1="133.33333333333334" y1="183.33333333333331" x2="150" y2="199.99999999999997" stroke-linecap="square" stroke-width="3" stroke="#333333"/><line x1="150" y1="183.33333333333331" x2="166.66666666666666" y2="199.99999999999997" stroke-linecap="square" stroke-width="3" stroke="#333333"/><line x1="166.66666666666666" y1="183.33333333333331" x2="183.33333333333331" y2="199.99999999999997" stroke-linecap="square" stroke-width="3" stroke="#333333"/><line x1="183.33333333333331" y1="199.99999999999997" x2="199.99999999999997" y2="183.33333333333331" stroke-linecap="square" stroke-width="3" stroke="#333333"/><line x1="199.99999999999997" y1="183.33333333333331" x2="216.66666666666663" y2="199.99999999999997" stroke-linecap="square" stroke-width="3" stroke="#333333"/><line x1="216.66666666666663" y1="183.33333333333331" x2="233.3333333333333" y2="199.99999999999997" stroke-linecap="square" stroke-width="3" stroke="#333333"/><line x1="233.3333333333333" y1="183.33333333333331" x2="249.99999999999994" y2="199.99999999999997" stroke-linecap="square" stroke-width="3" stroke="#333333"/><line x1="249.99999999999994" y1="183.33333333333331" x2="266.66666666666663" y2="199.99999999999997" stroke-linecap="square" stroke-width="3" stroke="#333333"/><line x1="266.66666666666663" y1="199.99999999999997" x2="283.3333333333333" y2="183.33333333333331" stroke-linecap="square" stroke-width="3" stroke="#333333"/><line x1="283.3333333333333" y1="199.99999999999997" x2="300" y2="183.33333333333331" stroke-linecap="square" stroke-width="3" stroke="#333333"/><line x1="300" y1="199.99999999999997" x2="316.6666666666667" y2="183.33333333333331" stroke-linecap="square" stroke-width="3" stroke="#333333"/><line x1="316.6666666666667" y1="183.33333333333331" x2="333.33333333333337" y2="199.99999999999997" stroke-linecap="square" stroke-width="3" stroke="#333333"/><line x1="333.33333333333337" y1="199.99999999999997" x2="350.00000000000006" y2="183.33333333333331" stroke-linecap="square" stroke-width="3" stroke="#333333"/><line x1="0" y1="199.99999999999997" x2="16.666666666666668" y2="216.66666666666663" stroke-linecap="square" stroke-width="3" stroke="#333333"/><line x1="16.666666666666668" y1="216.66666666666663" x2="33.333333333333336" y2="199.99999999999997" stroke-linecap="square" stroke-width="3" stroke="#333333"/><line x1="33.333333333333336" y1="199.99999999999997" x2="50" y2="216.66666666666663" stroke-linecap="square" stroke-width="3" stroke="#333333"/><line x1="50" y1="216.66666666666663" x2="66.66666666666667" y2="199.99999999999997" stroke-linecap="square" stroke-width="3" stroke="#333333"/><line x1="66.66666666666667" y1="216.66666666666663" x2="83.33333333333334" y2="199.99999999999997" stroke-linecap="square" stroke-width="3" stroke="#333333"/><line x1="83.33333333333334" y1="216.66666666666663" x2="100.00000000000001" y2="199.99999999999997" stroke-linecap="square" stroke-width="3" stroke="#333333"/><line x1="100.00000000000001" y1="199.99999999999997" x2="116.66666666666669" y2="216.66666666666663" stroke-linecap="square" stroke-width="3" stroke="#333333"/><line x1="116.66666666666669" y1="199.99999999999997" x2="133.33333333333334" y2="216.66666666666663" stroke-linecap="square" stroke-width="3" stroke="#333333"/><line x1="133.33333333333334" y1="199.99999999999997" x2="150" y2="216.66666666666663" stroke-linecap="square" stroke-width="3" stroke="#333333"/><line x1="150" y1="199.99999999999997" x2="166.66666666666666" y2="216.66666666666663" stroke-linecap="square" stroke-width="3" stroke="#333333"/><line x1="166.66666666666666" y1="199.99999999999997" x2="183.33333333333331" y2="216.66666666666663" stroke-linecap="square" stroke-width="3" stroke="#333333"/><line x1="183.33333333333331" y1="216.66666666666663" x2="199.99999999999997" y2="199.99999999999997" stroke-linecap="square" stroke-width="3" stroke="#333333"/><line x1="199.99999999999997" y1="216.66666666666663" x2="216.66666666666663" y2="199.99999999999997" stroke-linecap="square" stroke-width="3" stroke="#333333"/><line x1="216.66666666666663" y1="216.66666666666663" x2="233.3333333333333" y2="199.99999999999997" stroke-linecap="square" stroke-width="3" stroke="#333333"/><line x1="233.3333333333333" y1="199.99999999999997" x2="249.99999999999994" y2="216.66666666666663" stroke-linecap="square" stroke-width="3" stroke="#333333"/><line x1="249.99999999999994" y1="199.99999999999997" x2="266.66666666666663" y2="216.66666666666663" stroke-linecap="square" stroke-width="3" stroke="#333333"/><line x1="266.66666666666663" y1="199.99999999999997" x2="283.3333333333333" y2="216.66666666666663" stroke-linecap="square" stroke-width="3" stroke="#333333"/><line x1="283.3333333333333" y1="216.66666666666663" x2="300" y2="199.99999999999997" stroke-linecap="square" stroke-width="3" stroke="#333333"/><line x1="300" y1="199.99999999999997" x2="316.6666666666667" y2="216.66666666666663" stroke-linecap="square" stroke-width="3" stroke="#333333"/><line x1="316.6666666666667" y1="199.99999999999997" x2="333.33333333333337" y2="216.66666666666663" stroke-linecap="square" stroke-width="3" stroke="#333333"/><line x1="333.33333333333337" y1="216.66666666666663" x2="350.00000000000006" y2="199.99999999999997" stroke-linecap="square" stroke-width="3" stroke="#333333"/><line x1="0" y1="233.3333333333333" x2="16.666666666666668" y2="216.66666666666663" stroke-linecap="square" stroke-width="3" stroke="#333333"/><line x1="16.666666666666668" y1="233.3333333333333" x2="33.333333333333336" y2="216.66666666666663" stroke-linecap="square" stroke-width="3" stroke="#333333"/><line x1="33.333333333333336" y1="233.3333333333333" x2="50" y2="216.66666666666663" stroke-linecap="square" stroke-width="3" stroke="#333333"/><line x1="50" y1="233.3333333333333" x2="66.66666666666667" y2="216.66666666666663" stroke-linecap="square" stroke-width="3" stroke="#333333"/><line x1="66.66666666666667" y1="216.66666666666663" x2="83.33333333333334" y2="233.3333333333333" stroke-linecap="square" stroke-width="3" stroke="#333333"/><line x1="83.33333333333334" y1="233.3333333333333" x2="100.00000000000001" y2="216.66666666666663" stroke-linecap="square" stroke-width="3" stroke="#333333"/><line x1="100.00000000000001" y1="216.66666666666663" x2="116.66666666666669" y2="233.3333333333333" stroke-linecap="square" stroke-width="3" stroke="#333333"/><line x1="116.66666666666669" y1="233.3333333333333" x2="133.33333333333334" y2="216.66666666666663" stroke-linecap="square" stroke-width="3" stroke="#333333"/><line x1="133.33333333333334" y1="216.66666666666663" x2="150" y2="233.3333333333333" stroke-linecap="square" stroke-width="3" stroke="#333333"/><line x1="150" y1="233.3333333333333" x2="166.66666666666666" y2="216.66666666666663" stroke-linecap="square" stroke-width="3" stroke="#333333"/><line x1="166.66666666666666" y1="233.3333333333333" x2="183.33333333333331" y2="216.66666666666663" stroke-linecap="square" stroke-width="3" stroke="#333333"/><line x1="183.33333333333331" y1="233.3333333333333" x2="199.99999999999997" y2="216.66666666666663" stroke-linecap="square" stroke-width="3" stroke="#333333"/><line x1="199.99999999999997" y1="233.3333333333333" x2="216.66666666666663" y2="216.66666666666663" stroke-linecap="square" stroke-width="3" stroke="#333333"/><line x1="216.66666666666663" y1="233.3333333333333" x2="233.3333333333333" y2="216.66666666666663" stroke-linecap="square" stroke-width="3" stroke="#333333"/><line x1="233.3333333333333" y1="216.66666666666663" x2="249.99999999999994" y2="233.3333333333333" stroke-linecap="square" stroke-width="3" stroke="#333333"/><line x1="249.99999999999994" y1="233.3333333333333" x2="266.66666666666663" y2="216.66666666666663" stroke-linecap="square" stroke-width="3" stroke="#333333"/><line x1="266.66666666666663" y1="233.3333333333333" x2="283.3333333333333" y2="216.66666666666663" stroke-linecap="square" stroke-width="3" stroke="#333333"/><line x1="283.3333333333333" y1="216.66666666666663" x2="300" y2="233.3333333333333" stroke-linecap="square" stroke-width="3" stroke="#333333"/><line x1="300" y1="216.66666666666663" x2="316.6666666666667" y2="233.3333333333333" stroke-linecap="square" stroke-width="3" stroke="#333333"/><line x1="316.6666666666667" y1="216.66666666666663" x2="333.33333333333337" y2="233.3333333333333" stroke-linecap="square" stroke-width="3" stroke="#333333"/><line x1="333.33333333333337" y1="216.66666666666663" x2="350.00000000000006" y2="233.3333333333333" stroke-linecap="square" stroke-width="3" stroke="#333333"/><line x1="0" y1="233.3333333333333" x2="16.666666666666668" y2="249.99999999999994" stroke-linecap="square" stroke-width="3" stroke="#333333"/><line x1="16.666666666666668" y1="233.3333333333333" x2="33.333333333333336" y2="249.99999999999994" stroke-linecap="square" stroke-width="3" stroke="#333333"/><line x1="33.333333333333336" y1="233.3333333333333" x2="50" y2="249.99999999999994" stroke-linecap="square" stroke-width="3" stroke="#333333"/><line x1="50" y1="249.99999999999994" x2="66.66666666666667" y2="233.3333333333333" stroke-linecap="square" stroke-width="3" stroke="#333333"/><line x1="66.66666666666667" y1="249.99999999999994" x2="83.33333333333334" y2="233.3333333333333" stroke-linecap="square" stroke-width="3" stroke="#333333"/><line x1="83.33333333333334" y1="249.99999999999994" x2="100.00000000000001" y2="233.3333333333333" stroke-linecap="square" stroke-width="3" stroke="#333333"/><line x1="100.00000000000001" y1="249.99999999999994" x2="116.66666666666669" y2="233.3333333333333" stroke-linecap="square" stroke-width="3" stroke="#333333"/><line x1="116.66666666666669" y1="233.3333333333333" x2="133.33333333333334" y2="249.99999999999994" stroke-linecap="square" stroke-width="3" stroke="#333333"/><line x1="133.33333333333334" y1="233.3333333333333" x2="150" y2="249.99999999999994" stroke-linecap="square" stroke-width="3" stroke="#333333"/><line x1="150" y1="249.99999999999994" x2="166.66666666666666" y2="233.3333333333333" stroke-linecap="square" stroke-width="3" stroke="#333333"/><line x1="166.66666666666666" y1="233.3333333333333" x2="183.33333333333331" y2="249.99999999999994" stroke-linecap="square" stroke-width="3" stroke="#333333"/><line x1="183.33333333333331" y1="249.99999999999994" x2="199.99999999999997" y2="233.3333333333333" stroke-linecap="square" stroke-width="3" stroke="#333333"/><line x1="199.99999999999997" y1="233.3333333333333" x2="216.66666666666663" y2="249.99999999999994" stroke-linecap="square" stroke-width="3" stroke="#333333"/><line x1="216.66666666666663" y1="249.99999999999994" x2="233.3333333333333" y2="233.3333333333333" stroke-linecap="square" stroke-width="3" stroke="#333333"/><line x1="233.3333333333333" y1="249.99999999999994" x2="249.99999999999994" y2="233.3333333333333" stroke-linecap="square" stroke-width="3" stroke="#333333"/><line x1="249.99999999999994" y1="249.99999999999994" x2="266.66666666666663" y2="233.3333333333333" stroke-linecap="square" stroke-width="3" stroke="#333333"/><line x1="266.66666666666663" y1="249.99999999999994" x2="283.3333333333333" y2="233.3333333333333" stroke-linecap="square" stroke-width="3" stroke="#333333"/><line x1="283.3333333333333" y1="249.99999999999994" x2="300" y2="233.3333333333333" stroke-linecap="square" stroke-width="3" stroke="#333333"/><line x1="300" y1="249.99999999999994" x2="316.6666666666667" y2="233.3333333333333" stroke-linecap="square" stroke-width="3" stroke="#333333"/><line x1="316.6666666666667" y1="233.3333333333333" x2="333.33333333333337" y2="249.99999999999994" stroke-linecap="square" stroke-width="3" stroke="#333333"/><line x1="333.33333333333337" y1="233.3333333333333" x2="350.00000000000006" y2="249.99999999999994" stroke-linecap="square" stroke-width="3" stroke="#333333"/><line x1="0" y1="266.66666666666663" x2="16.666666666666668" y2="249.99999999999994" stroke-linecap="square" stroke-width="3" stroke="#333333"/><line x1="16.666666666666668" y1="249.99999999999994" x2="33.333333333333336" y2="266.66666666666663" stroke-linecap="square" stroke-width="3" stroke="#333333"/><line x1="33.333333333333336" y1="249.99999999999994" x2="50" y2="266.66666666666663" stroke-linecap="square" stroke-width="3" stroke="#333333"/><line x1="50" y1="249.99999999999994" x2="66.66666666666667" y2="266.66666666666663" stroke-linecap="square" stroke-width="3" stroke="#333333"/><line x1="66.66666666666667" y1="249.99999999999994" x2="83.33333333333334" y2="266.66666666666663" stroke-linecap="square" stroke-width="3" stroke="#333333"/><line x1="83.33333333333334" y1="249.99999999999994" x2="100.00000000000001" y2="266.66666666666663" stroke-linecap="square" stroke-width="3" stroke="#333333"/><line x1="100.00000000000001" y1="266.66666666666663" x2="116.66666666666669" y2="249.99999999999994" stroke-linecap="square" stroke-width="3" stroke="#333333"/><line x1="116.66666666666669" y1="266.66666666666663" x2="133.33333333333334" y2="249.99999999999994" stroke-linecap="square" stroke-width="3" stroke="#333333"/><line x1="133.33333333333334" y1="266.66666666666663" x2="150" y2="249.99999999999994" stroke-linecap="square" stroke-width="3" stroke="#333333"/><line x1="150" y1="249.99999999999994" x2="166.66666666666666" y2="266.66666666666663" stroke-linecap="square" stroke-width="3" stroke="#333333"/><line x1="166.66666666666666" y1="266.66666666666663" x2="183.33333333333331" y2="249.99999999999994" stroke-linecap="square" stroke-width="3" stroke="#333333"/><line x1="183.33333333333331" y1="249.99999999999994" x2="199.99999999999997" y2="266.66666666666663" stroke-linecap="square" stroke-width="3" stroke="#333333"/><line x1="199.99999999999997" y1="249.99999999999994" x2="216.66666666666663" y2="266.66666666666663" stroke-linecap="square" stroke-width="3" stroke="#333333"/><line x1="216.66666666666663" y1="266.66666666666663" x2="233.3333333333333" y2="249.99999999999994" stroke-linecap="square" stroke-width="3" stroke="#333333"/><line x1="233.3333333333333" y1="249.99999999999994" x2="249.99999999999994" y2="266.66666666666663" stroke-linecap="square" stroke-width="3" stroke="#333333"/><line x1="249.99999999999994" y1="249.99999999999994" x2="266.66666666666663" y2="266.66666666666663" stroke-linecap="square" stroke-width="3" stroke="#333333"/><line x1="266.66666666666663" y1="266.66666666666663" x2="283.3333333333333" y2="249.99999999999994" stroke-linecap="square" stroke-width="3" stroke="#333333"/><line x1="283.3333333333333" y1="266.66666666666663" x2="300" y2="249.99999999999994" stroke-linecap="square" stroke-width="3" stroke="#333333"/><line x1="300" y1="249.99999999999994" x2="316.6666666666667" y2="266.66666666666663" stroke-linecap="square" stroke-width="3" stroke="#333333"/><line x1="316.6666666666667" y1="249.99999999999994" x2="333.33333333333337" y2="266.66666666666663" stroke-linecap="square" stroke-width="3" stroke="#333333"/><line x1="333.33333333333337" y1="266.66666666666663" x2="350.00000000000006" y2="249.99999999999994" stroke-linecap="square" stroke-width="3" stroke="#333333"/><line x1="0" y1="266.66666666666663" x2="16.666666666666668" y2="283.3333333333333" stroke-linecap="square" stroke-width="3" stroke="#333333"/><line x1="16.666666666666668" y1="283.3333333333333" x2="33.333333333333336" y2="266.66666666666663" stroke-linecap="square" stroke-width="3" stroke="#333333"/><line x1="33.333333333333336" y1="266.66666666666663" x2="50" y2="283.3333333333333" stroke-linecap="square" stroke-width="3" stroke="#333333"/><line x1="50" y1="283.3333333333333" x2="66.66666666666667" y2="266.66666666666663" stroke-linecap="square" stroke-width="3" stroke="#333333"/><line x1="66.66666666666667" y1="283.3333333333333" x2="83.33333333333334" y2="266.66666666666663" stroke-linecap="square" stroke-width="3" stroke="#333333"/><line x1="83.33333333333334" y1="266.66666666666663" x2="100.00000000000001" y2="283.3333333333333" stroke-linecap="square" stroke-width="3" stroke="#333333"/><line x1="100.00000000000001" y1="283.3333333333333" x2="116.66666666666669" y2="266.66666666666663" stroke-linecap="square" stroke-width="3" stroke="#333333"/><line x1="116.66666666666669" y1="266.66666666666663" x2="133.33333333333334" y2="283.3333333333333" stroke-linecap="square" stroke-width="3" stroke="#333333"/><line x1="133.33333333333334" y1="266.66666666666663" x2="150" y2="283.3333333333333" stroke-linecap="square" stroke-width="3" stroke="#333333"/><line x1="150" y1="283.3333333333333" x2="166.66666666666666" y2="266.66666666666663" stroke-linecap="square" stroke-width="3" stroke="#333333"/><line x1="166.66666666666666" y1="283.3333333333333" x2="183.33333333333331" y2="266.66666666666663" stroke-linecap="square" stroke-width="3" stroke="#333333"/><line x1="183.33333333333331" y1="283.3333333333333" x2="199.99999999999997" y2="266.66666666666663" stroke-linecap="square" stroke-width="3" stroke="#333333"/><line x1="199.99999999999997" y1="266.66666666666663" x2="216.66666666666663" y2="283.3333333333333" stroke-linecap="square" stroke-width="3" stroke="#333333"/><line x1="216.66666666666663" y1="283.3333333333333" x2="233.3333333333333" y2="266.66666666666663" stroke-linecap="square" stroke-width="3" stroke="#333333"/><line x1="233.3333333333333" y1="283.3333333333333" x2="249.99999999999994" y2="266.66666666666663" stroke-linecap="square" stroke-width="3" stroke="#333333"/><line x1="249.99999999999994" y1="283.3333333333333" x2="266.66666666666663" y2="266.66666666666663" stroke-linecap="square" stroke-width="3" stroke="#333333"/><line x1="266.66666666666663" y1="283.3333333333333" x2="283.3333333333333" y2="266.66666666666663" stroke-linecap="square" stroke-width="3" stroke="#333333"/><line x1="283.3333333333333" y1="266.66666666666663" x2="300" y2="283.3333333333333" stroke-linecap="square" stroke-width="3" stroke="#333333"/><line x1="300" y1="283.3333333333333" x2="316.6666666666667" y2="266.66666666666663" stroke-linecap="square" stroke-width="3" stroke="#333333"/><line x1="316.6666666666667" y1="283.3333333333333" x2="333.33333333333337" y2="266.66666666666663" stroke-linecap="square" stroke-width="3" stroke="#333333"/><line x1="333.33333333333337" y1="266.66666666666663" x2="350.00000000000006" y2="283.3333333333333" stroke-linecap="square" stroke-width="3" stroke="#333333"/><line x1="0" y1="283.3333333333333" x2="16.666666666666668" y2="300" stroke-linecap="square" stroke-width="3" stroke="#333333"/><line x1="16.666666666666668" y1="300" x2="33.333333333333336" y2="283.3333333333333" stroke-linecap="square" stroke-width="3" stroke="#333333"/><line x1="33.333333333333336" y1="300" x2="50" y2="283.3333333333333" stroke-linecap="square" stroke-width="3" stroke="#333333"/><line x1="50" y1="300" x2="66.66666666666667" y2="283.3333333333333" stroke-linecap="square" stroke-width="3" stroke="#333333"/><line x1="66.66666666666667" y1="300" x2="83.33333333333334" y2="283.3333333333333" stroke-linecap="square" stroke-width="3" stroke="#333333"/><line x1="83.33333333333334" y1="283.3333333333333" x2="100.00000000000001" y2="300" stroke-linecap="square" stroke-width="3" stroke="#333333"/><line x1="100.00000000000001" y1="300" x2="116.66666666666669" y2="283.3333333333333" stroke-linecap="square" stroke-width="3" stroke="#333333"/><line x1="116.66666666666669" y1="300" x2="133.33333333333334" y2="283.3333333333333" stroke-linecap="square" stroke-width="3" stroke="#333333"/><line x1="133.33333333333334" y1="300" x2="150" y2="283.3333333333333" stroke-linecap="square" stroke-width="3" stroke="#333333"/><line x1="150" y1="300" x2="166.66666666666666" y2="283.3333333333333" stroke-linecap="square" stroke-width="3" stroke="#333333"/><line x1="166.66666666666666" y1="283.3333333333333" x2="183.33333333333331" y2="300" stroke-linecap="square" stroke-width="3" stroke="#333333"/><line x1="183.33333333333331" y1="300" x2="199.99999999999997" y2="283.3333333333333" stroke-linecap="square" stroke-width="3" stroke="#333333"/><line x1="199.99999999999997" y1="300" x2="216.66666666666663" y2="283.3333333333333" stroke-linecap="square" stroke-width="3" stroke="#333333"/><line x1="216.66666666666663" y1="283.3333333333333" x2="233.3333333333333" y2="300" stroke-linecap="square" stroke-width="3" stroke="#333333"/><line x1="233.3333333333333" y1="283.3333333333333" x2="249.99999999999994" y2="300" stroke-linecap="square" stroke-width="3" stroke="#333333"/><line x1="249.99999999999994" y1="300" x2="266.66666666666663" y2="283.3333333333333" stroke-linecap="square" stroke-width="3" stroke="#333333"/><line x1="266.66666666666663" y1="283.3333333333333" x2="283.3333333333333" y2="300" stroke-linecap="square" stroke-width="3" stroke="#333333"/><line x1="283.3333333333333" y1="283.3333333333333" x2="300" y2="300" stroke-linecap="square" stroke-width="3" stroke="#333333"/><line x1="300" y1="283.3333333333333" x2="316.6666666666667" y2="300" stroke-linecap="square" stroke-width="3" stroke="#333333"/><line x1="316.6666666666667" y1="283.3333333333333" x2="333.33333333333337" y2="300" stroke-linecap="square" stroke-width="3" stroke="#333333"/><line x1="333.33333333333337" y1="300" x2="350.00000000000006" y2="283.3333333333333" stroke-linecap="square" stroke-width="3" stroke="#333333"/><line x1="0" y1="316.6666666666667" x2="16.666666666666668" y2="300" stroke-linecap="square" stroke-width="3" stroke="#333333"/><line x1="16.666666666666668" y1="316.6666666666667" x2="33.333333333333336" y2="300" stroke-linecap="square" stroke-width="3" stroke="#333333"/><line x1="33.333333333333336" y1="316.6666666666667" x2="50" y2="300" stroke-linecap="square" stroke-width="3" stroke="#333333"/><line x1="50" y1="300" x2="66.66666666666667" y2="316.6666666666667" stroke-linecap="square" stroke-width="3" stroke="#333333"/><line x1="66.66666666666667" y1="316.6666666666667" x2="83.33333333333334" y2="300" stroke-linecap="square" stroke-width="3" stroke="#333333"/><line x1="83.33333333333334" y1="300" x2="100.00000000000001" y2="316.6666666666667" stroke-linecap="square" stroke-width="3" stroke="#333333"/><line x1="100.00000000000001" y1="316.6666666666667" x2="116.66666666666669" y2="300" stroke-linecap="square" stroke-width="3" stroke="#333333"/><line x1="116.66666666666669" y1="316.6666666666667" x2="133.33333333333334" y2="300" stroke-linecap="square" stroke-width="3" stroke="#333333"/><line x1="133.33333333333334" y1="300" x2="150" y2="316.6666666666667" stroke-linecap="square" stroke-width="3" stroke="#333333"/><line x1="150" y1="300" x2="166.66666666666666" y2="316.6666666666667" stroke-linecap="square" stroke-width="3" stroke="#333333"/><line x1="166.66666666666666" y1="316.6666666666667" x2="183.33333333333331" y2="300" stroke-linecap="square" stroke-width="3" stroke="#333333"/><line x1="183.33333333333331" y1="316.6666666666667" x2="199.99999999999997" y2="300" stroke-linecap="square" stroke-width="3" stroke="#333333"/><line x1="199.99999999999997" y1="316.6666666666667" x2="216.66666666666663" y2="300" stroke-linecap="square" stroke-width="3" stroke="#333333"/><line x1="216.66666666666663" y1="300" x2="233.3333333333333" y2="316.6666666666667" stroke-linecap="square" stroke-width="3" stroke="#333333"/><line x1="233.3333333333333" y1="300" x2="249.99999999999994" y2="316.6666666666667" stroke-linecap="square" stroke-width="3" stroke="#333333"/><line x1="249.99999999999994" y1="300" x2="266.66666666666663" y2="316.6666666666667" stroke-linecap="square" stroke-width="3" stroke="#333333"/><line x1="266.66666666666663" y1="300" x2="283.3333333333333" y2="316.6666666666667" stroke-linecap="square" stroke-width="3" stroke="#333333"/><line x1="283.3333333333333" y1="316.6666666666667" x2="300" y2="300" stroke-linecap="square" stroke-width="3" stroke="#333333"/><line x1="300" y1="316.6666666666667" x2="316.6666666666667" y2="300" stroke-linecap="square" stroke-width="3" stroke="#333333"/><line x1="316.6666666666667" y1="300" x2="333.33333333333337" y2="316.6666666666667" stroke-linecap="square" stroke-width="3" stroke="#333333"/><line x1="333.33333333333337" y1="316.6666666666667" x2="350.00000000000006" y2="300" stroke-linecap="square" stroke-width="3" stroke="#333333"/><line x1="0" y1="316.6666666666667" x2="16.666666666666668" y2="333.33333333333337" stroke-linecap="square" stroke-width="3" stroke="#333333"/><line x1="16.666666666666668" y1="333.33333333333337" x2="33.333333333333336" y2="316.6666666666667" stroke-linecap="square" stroke-width="3" stroke="#333333"/><line x1="33.333333333333336" y1="333.33333333333337" x2="50" y2="316.6666666666667" stroke-linecap="square" stroke-width="3" stroke="#333333"/><line x1="50" y1="333.33333333333337" x2="66.66666666666667" y2="316.6666666666667" stroke-linecap="square" stroke-width="3" stroke="#333333"/><line x1="66.66666666666667" y1="316.6666666666667" x2="83.33333333333334" y2="333.33333333333337" stroke-linecap="square" stroke-width="3" stroke="#333333"/><line x1="83.33333333333334" y1="316.6666666666667" x2="100.00000000000001" y2="333.33333333333337" stroke-linecap="square" stroke-width="3" stroke="#333333"/><line x1="100.00000000000001" y1="333.33333333333337" x2="116.66666666666669" y2="316.6666666666667" stroke-linecap="square" stroke-width="3" stroke="#333333"/><line x1="116.66666666666669" y1="333.33333333333337" x2="133.33333333333334" y2="316.6666666666667" stroke-linecap="square" stroke-width="3" stroke="#333333"/><line x1="133.33333333333334" y1="333.33333333333337" x2="150" y2="316.6666666666667" stroke-linecap="square" stroke-width="3" stroke="#333333"/><line x1="150" y1="333.33333333333337" x2="166.66666666666666" y2="316.6666666666667" stroke-linecap="square" stroke-width="3" stroke="#333333"/><line x1="166.66666666666666" y1="316.6666666666667" x2="183.33333333333331" y2="333.33333333333337" stroke-linecap="square" stroke-width="3" stroke="#333333"/><line x1="183.33333333333331" y1="333.33333333333337" x2="199.99999999999997" y2="316.6666666666667" stroke-linecap="square" stroke-width="3" stroke="#333333"/><line x1="199.99999999999997" y1="316.6666666666667" x2="216.66666666666663" y2="333.33333333333337" stroke-linecap="square" stroke-width="3" stroke="#333333"/><line x1="216.66666666666663" y1="316.6666666666667" x2="233.3333333333333" y2="333.33333333333337" stroke-linecap="square" stroke-width="3" stroke="#333333"/><line x1="233.3333333333333" y1="316.6666666666667" x2="249.99999999999994" y2="333.33333333333337" stroke-linecap="square" stroke-width="3" stroke="#333333"/><line x1="249.99999999999994" y1="333.33333333333337" x2="266.66666666666663" y2="316.6666666666667" stroke-linecap="square" stroke-width="3" stroke="#333333"/><line x1="266.66666666666663" y1="333.33333333333337" x2="283.3333333333333" y2="316.6666666666667" stroke-linecap="square" stroke-width="3" stroke="#333333"/><line x1="283.3333333333333" y1="333.33333333333337" x2="300" y2="316.6666666666667" stroke-linecap="square" stroke-width="3" stroke="#333333"/><line x1="300" y1="316.6666666666667" x2="316.6666666666667" y2="333.33333333333337" stroke-linecap="square" stroke-width="3" stroke="#333333"/><line x1="316.6666666666667" y1="316.6666666666667" x2="333.33333333333337" y2="333.33333333333337" stroke-linecap="square" stroke-width="3" stroke="#333333"/><line x1="333.33333333333337" y1="316.6666666666667" x2="350.00000000000006" y2="333.33333333333337" stroke-linecap="square" stroke-width="3" stroke="#333333"/><line x1="0" y1="333.33333333333337" x2="16.666666666666668" y2="350.00000000000006" stroke-linecap="square" stroke-width="3" stroke="#333333"/><line x1="16.666666666666668" y1="350.00000000000006" x2="33.333333333333336" y2="333.33333333333337" stroke-linecap="square" stroke-width="3" stroke="#333333"/><line x1="33.333333333333336" y1="350.00000000000006" x2="50" y2="333.33333333333337" stroke-linecap="square" stroke-width="3" stroke="#333333"/><line x1="50" y1="333.33333333333337" x2="66.66666666666667" y2="350.00000000000006" stroke-linecap="square" stroke-width="3" stroke="#333333"/><line x1="66.66666666666667" y1="350.00000000000006" x2="83.33333333333334" y2="333.33333333333337" stroke-linecap="square" stroke-width="3" stroke="#333333"/><line x1="83.33333333333334" y1="333.33333333333337" x2="100.00000000000001" y2="350.00000000000006" stroke-linecap="square" stroke-width="3" stroke="#333333"/><line x1="100.00000000000001" y1="350.00000000000006" x2="116.66666666666669" y2="333.33333333333337" stroke-linecap="square" stroke-width="3" stroke="#333333"/><line x1="116.66666666666669" y1="350.00000000000006" x2="133.33333333333334" y2="333.33333333333337" stroke-linecap="square" stroke-width="3" stroke="#333333"/><line x1="133.33333333333334" y1="333.33333333333337" x2="150" y2="350.00000000000006" stroke-linecap="square" stroke-width="3" stroke="#333333"/><line x1="150" y1="350.00000000000006" x2="166.66666666666666" y2="333.33333333333337" stroke-linecap="square" stroke-width="3" stroke="#333333"/><line x1="166.66666666666666" y1="333.33333333333337" x2="183.33333333333331" y2="350.00000000000006" stroke-linecap="square" stroke-width="3" stroke="#333333"/><line x1="183.33333333333331" y1="333.33333333333337" x2="199.99999999999997" y2="350.00000000000006" stroke-linecap="square" stroke-width="3" stroke="#333333"/><line x1="199.99999999999997" y1="350.00000000000006" x2="216.66666666666663" y2="333.33333333333337" stroke-linecap="square" stroke-width="3" stroke="#333333"/><line x1="216.66666666666663" y1="350.00000000000006" x2="233.3333333333333" y2="333.33333333333337" stroke-linecap="square" stroke-width="3" stroke="#333333"/><line x1="233.3333333333333" y1="350.00000000000006" x2="249.99999999999994" y2="333.33333333333337" stroke-linecap="square" stroke-width="3" stroke="#333333"/><line x1="249.99999999999994" y1="350.00000000000006" x2="266.66666666666663" y2="333.33333333333337" stroke-linecap="square" stroke-width="3" stroke="#333333"/><line x1="266.66666666666663" y1="333.33333333333337" x2="283.3333333333333" y2="350.00000000000006" stroke-linecap="square" stroke-width="3" stroke="#333333"/><line x1="283.3333333333333" y1="333.33333333333337" x2="300" y2="350.00000000000006" stroke-linecap="square" stroke-width="3" stroke="#333333"/><line x1="300" y1="333.33333333333337" x2="316.6666666666667" y2="350.00000000000006" stroke-linecap="square" stroke-width="3" stroke="#333333"/><line x1="316.6666666666667" y1="333.33333333333337" x2="333.33333333333337" y2="350.00000000000006" stroke-linecap="square" stroke-width="3" stroke="#333333"/><line x1="333.33333333333337" y1="350.00000000000006" x2="350.00000000000006" y2="333.33333333333337" stroke-linecap="square" stroke-width="3" stroke="#333333"/><line x1="0" y1="350.00000000000006" x2="16.666666666666668" y2="366.66666666666674" stroke-linecap="square" stroke-width="3" stroke="#333333"/><line x1="16.666666666666668" y1="366.66666666666674" x2="33.333333333333336" y2="350.00000000000006" stroke-linecap="square" stroke-width="3" stroke="#333333"/><line x1="33.333333333333336" y1="350.00000000000006" x2="50" y2="366.66666666666674" stroke-linecap="square" stroke-width="3" stroke="#333333"/><line x1="50" y1="350.00000000000006" x2="66.66666666666667" y2="366.66666666666674" stroke-linecap="square" stroke-width="3" stroke="#333333"/><line x1="66.66666666666667" y1="350.00000000000006" x2="83.33333333333334" y2="366.66666666666674" stroke-linecap="square" stroke-width="3" stroke="#333333"/><line x1="83.33333333333334" y1="366.66666666666674" x2="100.00000000000001" y2="350.00000000000006" stroke-linecap="square" stroke-width="3" stroke="#333333"/><line x1="100.00000000000001" y1="350.00000000000006" x2="116.66666666666669" y2="366.66666666666674" stroke-linecap="square" stroke-width="3" stroke="#333333"/><line x1="116.66666666666669" y1="366.66666666666674" x2="133.33333333333334" y2="350.00000000000006" stroke-linecap="square" stroke-width="3" stroke="#333333"/><line x1="133.33333333333334" y1="366.66666666666674" x2="150" y2="350.00000000000006" stroke-linecap="square" stroke-width="3" stroke="#333333"/><line x1="150" y1="350.00000000000006" x2="166.66666666666666" y2="366.66666666666674" stroke-linecap="square" stroke-width="3" stroke="#333333"/><line x1="166.66666666666666" y1="350.00000000000006" x2="183.33333333333331" y2="366.66666666666674" stroke-linecap="square" stroke-width="3" stroke="#333333"/><line x1="183.33333333333331" y1="366.66666666666674" x2="199.99999999999997" y2="350.00000000000006" stroke-linecap="square" stroke-width="3" stroke="#333333"/><line x1="199.99999999999997" y1="350.00000000000006" x2="216.66666666666663" y2="366.66666666666674" stroke-linecap="square" stroke-width="3" stroke="#333333"/><line x1="216.66666666666663" y1="366.66666666666674" x2="233.3333333333333" y2="350.00000000000006" stroke-linecap="square" stroke-width="3" stroke="#333333"/><line x1="233.3333333333333" y1="366.66666666666674" x2="249.99999999999994" y2="350.00000000000006" stroke-linecap="square" stroke-width="3" stroke="#333333"/><line x1="249.99999999999994" y1="350.00000000000006" x2="266.66666666666663" y2="366.66666666666674" stroke-linecap="square" stroke-width="3" stroke="#333333"/><line x1="266.66666666666663" y1="350.00000000000006" x2="283.3333333333333" y2="366.66666666666674" stroke-linecap="square" stroke-width="3" stroke="#333333"/><line x1="283.3333333333333" y1="366.66666666666674" x2="300" y2="350.00000000000006" stroke-linecap="square" stroke-width="3" stroke="#333333"/><line x1="300" y1="350.00000000000006" x2="316.6666666666667" y2="366.66666666666674" stroke-linecap="square" stroke-width="3" stroke="#333333"/><line x1="316.6666666666667" y1="350.00000000000006" x2="333.33333333333337" y2="366.66666666666674" stroke-linecap="square" stroke-width="3" stroke="#333333"/><line x1="333.33333333333337" y1="350.00000000000006" x2="350.00000000000006" y2="366.66666666666674" stroke-linecap="square" stroke-width="3" stroke="#333333"/><line x1="0" y1="383.3333333333334" x2="16.666666666666668" y2="366.66666666666674" stroke-linecap="square" stroke-width="3" stroke="#333333"/><line x1="16.666666666666668" y1="366.66666666666674" x2="33.333333333333336" y2="383.3333333333334" stroke-linecap="square" stroke-width="3" stroke="#333333"/><line x1="33.333333333333336" y1="383.3333333333334" x2="50" y2="366.66666666666674" stroke-linecap="square" stroke-width="3" stroke="#333333"/><line x1="50" y1="366.66666666666674" x2="66.66666666666667" y2="383.3333333333334" stroke-linecap="square" stroke-width="3" stroke="#333333"/><line x1="66.66666666666667" y1="366.66666666666674" x2="83.33333333333334" y2="383.3333333333334" stroke-linecap="square" stroke-width="3" stroke="#333333"/><line x1="83.33333333333334" y1="383.3333333333334" x2="100.00000000000001" y2="366.66666666666674" stroke-linecap="square" stroke-width="3" stroke="#333333"/><line x1="100.00000000000001" y1="366.66666666666674" x2="116.66666666666669" y2="383.3333333333334" stroke-linecap="square" stroke-width="3" stroke="#333333"/><line x1="116.66666666666669" y1="366.66666666666674" x2="133.33333333333334" y2="383.3333333333334" stroke-linecap="square" stroke-width="3" stroke="#333333"/><line x1="133.33333333333334" y1="366.66666666666674" x2="150" y2="383.3333333333334" stroke-linecap="square" stroke-width="3" stroke="#333333"/><line x1="150" y1="383.3333333333334" x2="166.66666666666666" y2="366.66666666666674" stroke-linecap="square" stroke-width="3" stroke="#333333"/><line x1="166.66666666666666" y1="366.66666666666674" x2="183.33333333333331" y2="383.3333333333334" stroke-linecap="square" stroke-width="3" stroke="#333333"/><line x1="183.33333333333331" y1="383.3333333333334" x2="199.99999999999997" y2="366.66666666666674" stroke-linecap="square" stroke-width="3" stroke="#333333"/><line x1="199.99999999999997" y1="366.66666666666674" x2="216.66666666666663" y2="383.3333333333334" stroke-linecap="square" stroke-width="3" stroke="#333333"/><line x1="216.66666666666663" y1="366.66666666666674" x2="233.3333333333333" y2="383.3333333333334" stroke-linecap="square" stroke-width="3" stroke="#333333"/><line x1="233.3333333333333" y1="366.66666666666674" x2="249.99999999999994" y2="383.3333333333334" stroke-linecap="square" stroke-width="3" stroke="#333333"/><line x1="249.99999999999994" y1="366.66666666666674" x2="266.66666666666663" y2="383.3333333333334" stroke-linecap="square" stroke-width="3" stroke="#333333"/><line x1="266.66666666666663" y1="383.3333333333334" x2="283.3333333333333" y2="366.66666666666674" stroke-linecap="square" stroke-width="3" stroke="#333333"/><line x1="283.3333333333333" y1="366.66666666666674" x2="300" y2="383.3333333333334" stroke-linecap="square" stroke-width="3" stroke="#333333"/><line x1="300" y1="383.3333333333334" x2="316.6666666666667" y2="366.66666666666674" stroke-linecap="square" stroke-width="3" stroke="#333333"/><line x1="316.6666666666667" y1="366.66666666666674" x2="333.33333333333337" y2="383.3333333333334" stroke-linecap="square" stroke-width="3" stroke="#333333"/><line x1="333.33333333333337" y1="383.3333333333334" x2="350.00000000000006" y2="366.66666666666674" stroke-linecap="square" stroke-width="3" stroke="#333333"/><line x1="0" y1="383.3333333333334" x2="16.666666666666668" y2="400.0000000000001" stroke-linecap="square" stroke-width="3" stroke="#333333"/><line x1="16.666666666666668" y1="383.3333333333334" x2="33.333333333333336" y2="400.0000000000001" stroke-linecap="square" stroke-width="3" stroke="#333333"/><line x1="33.333333333333336" y1="383.3333333333334" x2="50" y2="400.0000000000001" stroke-linecap="square" stroke-width="3" stroke="#333333"/><line x1="50" y1="400.0000000000001" x2="66.66666666666667" y2="383.3333333333334" stroke-linecap="square" stroke-width="3" stroke="#333333"/><line x1="66.66666666666667" y1="400.0000000000001" x2="83.33333333333334" y2="383.3333333333334" stroke-linecap="square" stroke-width="3" stroke="#333333"/><line x1="83.33333333333334" y1="383.3333333333334" x2="100.00000000000001" y2="400.0000000000001" stroke-linecap="square" stroke-width="3" stroke="#333333"/><line x1="100.00000000000001" y1="400.0000000000001" x2="116.66666666666669" y2="383.3333333333334" stroke-linecap="square" stroke-width="3" stroke="#333333"/><line x1="116.66666666666669" y1="383.3333333333334" x2="133.33333333333334" y2="400.0000000000001" stroke-linecap="square" stroke-width="3" stroke="#333333"/><line x1="133.33333333333334" y1="383.3333333333334" x2="150" y2="400.0000000000001" stroke-linecap="square" stroke-width="3" stroke="#333333"/><line x1="150" y1="400.0000000000001" x2="166.66666666666666" y2="383.3333333333334" stroke-linecap="square" stroke-width="3" stroke="#333333"/><line x1="166.66666666666666" y1="383.3333333333334" x2="183.33333333333331" y2="400.0000000000001" stroke-linecap="square" stroke-width="3" stroke="#333333"/><line x1="183.33333333333331" y1="400.0000000000001" x2="199.99999999999997" y2="383.3333333333334" stroke-linecap="square" stroke-width="3" stroke="#333333"/><line x1="199.99999999999997" y1="383.3333333333334" x2="216.66666666666663" y2="400.0000000000001" stroke-linecap="square" stroke-width="3" stroke="#333333"/><line x1="216.66666666666663" y1="400.0000000000001" x2="233.3333333333333" y2="383.3333333333334" stroke-linecap="square" stroke-width="3" stroke="#333333"/><line x1="233.3333333333333" y1="400.0000000000001" x2="249.99999999999994" y2="383.3333333333334" stroke-linecap="square" stroke-width="3" stroke="#333333"/><line x1="249.99999999999994" y1="400.0000000000001" x2="266.66666666666663" y2="383.3333333333334" stroke-linecap="square" stroke-width="3" stroke="#333333"/><line x1="266.66666666666663" y1="400.0000000000001" x2="283.3333333333333" y2="383.3333333333334" stroke-linecap="square" stroke-width="3" stroke="#333333"/><line x1="283.3333333333333" y1="383.3333333333334" x2="300" y2="400.0000000000001" stroke-linecap="square" stroke-width="3" stroke="#333333"/><line x1="300" y1="400.0000000000001" x2="316.6666666666667" y2="383.3333333333334" stroke-linecap="square" stroke-width="3" stroke="#333333"/><line x1="316.6666666666667" y1="400.0000000000001" x2="333.33333333333337" y2="383.3333333333334" stroke-linecap="square" stroke-width="3" stroke="#333333"/><line x1="333.33333333333337" y1="400.0000000000001" x2="350.00000000000006" y2="383.3333333333334" stroke-linecap="square" stroke-width="3" stroke="#333333"/><line x1="0" y1="416.6666666666668" x2="16.666666666666668" y2="400.0000000000001" stroke-linecap="square" stroke-width="3" stroke="#333333"/><line x1="16.666666666666668" y1="416.6666666666668" x2="33.333333333333336" y2="400.0000000000001" stroke-linecap="square" stroke-width="3" stroke="#333333"/><line x1="33.333333333333336" y1="416.6666666666668" x2="50" y2="400.0000000000001" stroke-linecap="square" stroke-width="3" stroke="#333333"/><line x1="50" y1="400.0000000000001" x2="66.66666666666667" y2="416.6666666666668" stroke-linecap="square" stroke-width="3" stroke="#333333"/><line x1="66.66666666666667" y1="400.0000000000001" x2="83.33333333333334" y2="416.6666666666668" stroke-linecap="square" stroke-width="3" stroke="#333333"/><line x1="83.33333333333334" y1="400.0000000000001" x2="100.00000000000001" y2="416.6666666666668" stroke-linecap="square" stroke-width="3" stroke="#333333"/><line x1="100.00000000000001" y1="400.0000000000001" x2="116.66666666666669" y2="416.6666666666668" stroke-linecap="square" stroke-width="3" stroke="#333333"/><line x1="116.66666666666669" y1="400.0000000000001" x2="133.33333333333334" y2="416.6666666666668" stroke-linecap="square" stroke-width="3" stroke="#333333"/><line x1="133.33333333333334" y1="400.0000000000001" x2="150" y2="416.6666666666668" stroke-linecap="square" stroke-width="3" stroke="#333333"/><line x1="150" y1="416.6666666666668" x2="166.66666666666666" y2="400.0000000000001" stroke-linecap="square" stroke-width="3" stroke="#333333"/><line x1="166.66666666666666" y1="400.0000000000001" x2="183.33333333333331" y2="416.6666666666668" stroke-linecap="square" stroke-width="3" stroke="#333333"/><line x1="183.33333333333331" y1="400.0000000000001" x2="199.99999999999997" y2="416.6666666666668" stroke-linecap="square" stroke-width="3" stroke="#333333"/><line x1="199.99999999999997" y1="400.0000000000001" x2="216.66666666666663" y2="416.6666666666668" stroke-linecap="square" stroke-width="3" stroke="#333333"/><line x1="216.66666666666663" y1="416.6666666666668" x2="233.3333333333333" y2="400.0000000000001" stroke-linecap="square" stroke-width="3" stroke="#333333"/><line x1="233.3333333333333" y1="400.0000000000001" x2="249.99999999999994" y2="416.6666666666668" stroke-linecap="square" stroke-width="3" stroke="#333333"/><line x1="249.99999999999994" y1="416.6666666666668" x2="266.66666666666663" y2="400.0000000000001" stroke-linecap="square" stroke-width="3" stroke="#333333"/><line x1="266.66666666666663" y1="416.6666666666668" x2="283.3333333333333" y2="400.0000000000001" stroke-linecap="square" stroke-width="3" stroke="#333333"/><line x1="283.3333333333333" y1="400.0000000000001" x2="300" y2="416.6666666666668" stroke-linecap="square" stroke-width="3" stroke="#333333"/><line x1="300" y1="416.6666666666668" x2="316.6666666666667" y2="400.0000000000001" stroke-linecap="square" stroke-width="3" stroke="#333333"/><line x1="316.6666666666667" y1="400.0000000000001" x2="333.33333333333337" y2="416.6666666666668" stroke-linecap="square" stroke-width="3" stroke="#333333"/><line x1="333.33333333333337" y1="400.0000000000001" x2="350.00000000000006" y2="416.6666666666668" stroke-linecap="square" stroke-width="3" stroke="#333333"/><line x1="0" y1="433.3333333333335" x2="16.666666666666668" y2="416.6666666666668" stroke-linecap="square" stroke-width="3" stroke="#333333"/><line x1="16.666666666666668" y1="416.6666666666668" x2="33.333333333333336" y2="433.3333333333335" stroke-linecap="square" stroke-width="3" stroke="#333333"/><line x1="33.333333333333336" y1="416.6666666666668" x2="50" y2="433.3333333333335" stroke-linecap="square" stroke-width="3" stroke="#333333"/><line x1="50" y1="416.6666666666668" x2="66.66666666666667" y2="433.3333333333335" stroke-linecap="square" stroke-width="3" stroke="#333333"/><line x1="66.66666666666667" y1="433.3333333333335" x2="83.33333333333334" y2="416.6666666666668" stroke-linecap="square" stroke-width="3" stroke="#333333"/><line x1="83.33333333333334" y1="416.6666666666668" x2="100.00000000000001" y2="433.3333333333335" stroke-linecap="square" stroke-width="3" stroke="#333333"/><line x1="100.00000000000001" y1="433.3333333333335" x2="116.66666666666669" y2="416.6666666666668" stroke-linecap="square" stroke-width="3" stroke="#333333"/><line x1="116.66666666666669" y1="416.6666666666668" x2="133.33333333333334" y2="433.3333333333335" stroke-linecap="square" stroke-width="3" stroke="#333333"/><line x1="133.33333333333334" y1="416.6666666666668" x2="150" y2="433.3333333333335" stroke-linecap="square" stroke-width="3" stroke="#333333"/><line x1="150" y1="416.6666666666668" x2="166.66666666666666" y2="433.3333333333335" stroke-linecap="square" stroke-width="3" stroke="#333333"/><line x1="166.66666666666666" y1="433.3333333333335" x2="183.33333333333331" y2="416.6666666666668" stroke-linecap="square" stroke-width="3" stroke="#333333"/><line x1="183.33333333333331" y1="433.3333333333335" x2="199.99999999999997" y2="416.6666666666668" stroke-linecap="square" stroke-width="3" stroke="#333333"/><line x1="199.99999999999997" y1="416.6666666666668" x2="216.66666666666663" y2="433.3333333333335" stroke-linecap="square" stroke-width="3" stroke="#333333"/><line x1="216.66666666666663" y1="433.3333333333335" x2="233.3333333333333" y2="416.6666666666668" stroke-linecap="square" stroke-width="3" stroke="#333333"/><line x1="233.3333333333333" y1="416.6666666666668" x2="249.99999999999994" y2="433.3333333333335" stroke-linecap="square" stroke-width="3" stroke="#333333"/><line x1="249.99999999999994" y1="433.3333333333335" x2="266.66666666666663" y2="416.6666666666668" stroke-linecap="square" stroke-width="3" stroke="#333333"/><line x1="266.66666666666663" y1="416.6666666666668" x2="283.3333333333333" y2="433.3333333333335" stroke-linecap="square" stroke-width="3" stroke="#333333"/><line x1="283.3333333333333" y1="433.3333333333335" x2="300" y2="416.6666666666668" stroke-linecap="square" stroke-width="3" stroke="#333333"/><line x1="300" y1="416.6666666666668" x2="316.6666666666667" y2="433.3333333333335" stroke-linecap="square" stroke-width="3" stroke="#333333"/><line x1="316.6666666666667" y1="416.6666666666668" x2="333.33333333333337" y2="433.3333333333335" stroke-linecap="square" stroke-width="3" stroke="#333333"/><line x1="333.33333333333337" y1="433.3333333333335" x2="350.00000000000006" y2="416.6666666666668" stroke-linecap="square" stroke-width="3" stroke="#333333"/><line x1="0" y1="450.00000000000017" x2="16.666666666666668" y2="433.3333333333335" stroke-linecap="square" stroke-width="3" stroke="#333333"/><line x1="16.666666666666668" y1="450.00000000000017" x2="33.333333333333336" y2="433.3333333333335" stroke-linecap="square" stroke-width="3" stroke="#333333"/><line x1="33.333333333333336" y1="450.00000000000017" x2="50" y2="433.3333333333335" stroke-linecap="square" stroke-width="3" stroke="#333333"/><line x1="50" y1="433.3333333333335" x2="66.66666666666667" y2="450.00000000000017" stroke-linecap="square" stroke-width="3" stroke="#333333"/><line x1="66.66666666666667" y1="433.3333333333335" x2="83.33333333333334" y2="450.00000000000017" stroke-linecap="square" stroke-width="3" stroke="#333333"/><line x1="83.33333333333334" y1="450.00000000000017" x2="100.00000000000001" y2="433.3333333333335" stroke-linecap="square" stroke-width="3" stroke="#333333"/><line x1="100.00000000000001" y1="450.00000000000017" x2="116.66666666666669" y2="433.3333333333335" stroke-linecap="square" stroke-width="3" stroke="#333333"/><line x1="116.66666666666669" y1="450.00000000000017" x2="133.33333333333334" y2="433.3333333333335" stroke-linecap="square" stroke-width="3" stroke="#333333"/><line x1="133.33333333333334" y1="433.3333333333335" x2="150" y2="450.00000000000017" stroke-linecap="square" stroke-width="3" stroke="#333333"/><line x1="150" y1="433.3333333333335" x2="166.66666666666666" y2="450.00000000000017" stroke-linecap="square" stroke-width="3" stroke="#333333"/><line x1="166.66666666666666" y1="433.3333333333335" x2="183.33333333333331" y2="450.00000000000017" stroke-linecap="square" stroke-width="3" stroke="#333333"/><line x1="183.33333333333331" y1="433.3333333333335" x2="199.99999999999997" y2="450.00000000000017" stroke-linecap="square" stroke-width="3" stroke="#333333"/><line x1="199.99999999999997" y1="433.3333333333335" x2="216.66666666666663" y2="450.00000000000017" stroke-linecap="square" stroke-width="3" stroke="#333333"/><line x1="216.66666666666663" y1="433.3333333333335" x2="233.3333333333333" y2="450.00000000000017" stroke-linecap="square" stroke-width="3" stroke="#333333"/><line x1="233.3333333333333" y1="433.3333333333335" x2="249.99999999999994" y2="450.00000000000017" stroke-linecap="square" stroke-width="3" stroke="#333333"/><line x1="249.99999999999994" y1="433.3333333333335" x2="266.66666666666663" y2="450.00000000000017" stroke-linecap="square" stroke-width="3" stroke="#333333"/><line x1="266.66666666666663" y1="450.00000000000017" x2="283.3333333333333" y2="433.3333333333335" stroke-linecap="square" stroke-width="3" stroke="#333333"/><line x1="283.3333333333333" y1="433.3333333333335" x2="300" y2="450.00000000000017" stroke-linecap="square" stroke-width="3" stroke="#333333"/><line x1="300" y1="450.00000000000017" x2="316.6666666666667" y2="433.3333333333335" stroke-linecap="square" stroke-width="3" stroke="#333333"/><line x1="316.6666666666667" y1="433.3333333333335" x2="333.33333333333337" y2="450.00000000000017" stroke-linecap="square" stroke-width="3" stroke="#333333"/><line x1="333.33333333333337" y1="450.00000000000017" x2="350.00000000000006" y2="433.3333333333335" stroke-linecap="square" stroke-width="3" stroke="#333333"/><line x1="0" y1="450.00000000000017" x2="16.666666666666668" y2="466.66666666666686" stroke-linecap="square" stroke-width="3" stroke="#333333"/><line x1="16.666666666666668" y1="466.66666666666686" x2="33.333333333333336" y2="450.00000000000017" stroke-linecap="square" stroke-width="3" stroke="#333333"/><line x1="33.333333333333336" y1="466.66666666666686" x2="50" y2="450.00000000000017" stroke-linecap="square" stroke-width="3" stroke="#333333"/><line x1="50" y1="466.66666666666686" x2="66.66666666666667" y2="450.00000000000017" stroke-linecap="square" stroke-width="3" stroke="#333333"/><line x1="66.66666666666667" y1="466.66666666666686" x2="83.33333333333334" y2="450.00000000000017" stroke-linecap="square" stroke-width="3" stroke="#333333"/><line x1="83.33333333333334" y1="450.00000000000017" x2="100.00000000000001" y2="466.66666666666686" stroke-linecap="square" stroke-width="3" stroke="#333333"/><line x1="100.00000000000001" y1="450.00000000000017" x2="116.66666666666669" y2="466.66666666666686" stroke-linecap="square" stroke-width="3" stroke="#333333"/><line x1="116.66666666666669" y1="466.66666666666686" x2="133.33333333333334" y2="450.00000000000017" stroke-linecap="square" stroke-width="3" stroke="#333333"/><line x1="133.33333333333334" y1="466.66666666666686" x2="150" y2="450.00000000000017" stroke-linecap="square" stroke-width="3" stroke="#333333"/><line x1="150" y1="450.00000000000017" x2="166.66666666666666" y2="466.66666666666686" stroke-linecap="square" stroke-width="3" stroke="#333333"/><line x1="166.66666666666666" y1="450.00000000000017" x2="183.33333333333331" y2="466.66666666666686" stroke-linecap="square" stroke-width="3" stroke="#333333"/><line x1="183.33333333333331" y1="450.00000000000017" x2="199.99999999999997" y2="466.66666666666686" stroke-linecap="square" stroke-width="3" stroke="#333333"/><line x1="199.99999999999997" y1="466.66666666666686" x2="216.66666666666663" y2="450.00000000000017" stroke-linecap="square" stroke-width="3" stroke="#333333"/><line x1="216.66666666666663" y1="450.00000000000017" x2="233.3333333333333" y2="466.66666666666686" stroke-linecap="square" stroke-width="3" stroke="#333333"/><line x1="233.3333333333333" y1="466.66666666666686" x2="249.99999999999994" y2="450.00000000000017" stroke-linecap="square" stroke-width="3" stroke="#333333"/><line x1="249.99999999999994" y1="466.66666666666686" x2="266.66666666666663" y2="450.00000000000017" stroke-linecap="square" stroke-width="3" stroke="#333333"/><line x1="266.66666666666663" y1="466.66666666666686" x2="283.3333333333333" y2="450.00000000000017" stroke-linecap="square" stroke-width="3" stroke="#333333"/><line x1="283.3333333333333" y1="466.66666666666686" x2="300" y2="450.00000000000017" stroke-linecap="square" stroke-width="3" stroke="#333333"/><line x1="300" y1="450.00000000000017" x2="316.6666666666667" y2="466.66666666666686" stroke-linecap="square" stroke-width="3" stroke="#333333"/><line x1="316.6666666666667" y1="450.00000000000017" x2="333.33333333333337" y2="466.66666666666686" stroke-linecap="square" stroke-width="3" stroke="#333333"/><line x1="333.33333333333337" y1="450.00000000000017" x2="350.00000000000006" y2="466.66666666666686" stroke-linecap="square" stroke-width="3" stroke="#333333"/><line x1="0" y1="483.33333333333354" x2="16.666666666666668" y2="466.66666666666686" stroke-linecap="square" stroke-width="3" stroke="#333333"/><line x1="16.666666666666668" y1="483.33333333333354" x2="33.333333333333336" y2="466.66666666666686" stroke-linecap="square" stroke-width="3" stroke="#333333"/><line x1="33.333333333333336" y1="466.66666666666686" x2="50" y2="483.33333333333354" stroke-linecap="square" stroke-width="3" stroke="#333333"/><line x1="50" y1="483.33333333333354" x2="66.66666666666667" y2="466.66666666666686" stroke-linecap="square" stroke-width="3" stroke="#333333"/><line x1="66.66666666666667" y1="466.66666666666686" x2="83.33333333333334" y2="483.33333333333354" stroke-linecap="square" stroke-width="3" stroke="#333333"/><line x1="83.33333333333334" y1="483.33333333333354" x2="100.00000000000001" y2="466.66666666666686" stroke-linecap="square" stroke-width="3" stroke="#333333"/><line x1="100.00000000000001" y1="466.66666666666686" x2="116.66666666666669" y2="483.33333333333354" stroke-linecap="square" stroke-width="3" stroke="#333333"/><line x1="116.66666666666669" y1="483.33333333333354" x2="133.33333333333334" y2="466.66666666666686" stroke-linecap="square" stroke-width="3" stroke="#333333"/><line x1="133.33333333333334" y1="483.33333333333354" x2="150" y2="466.66666666666686" stroke-linecap="square" stroke-width="3" stroke="#333333"/><line x1="150" y1="483.33333333333354" x2="166.66666666666666" y2="466.66666666666686" stroke-linecap="square" stroke-width="3" stroke="#333333"/><line x1="166.66666666666666" y1="466.66666666666686" x2="183.33333333333331" y2="483.33333333333354" stroke-linecap="square" stroke-width="3" stroke="#333333"/><line x1="183.33333333333331" y1="483.33333333333354" x2="199.99999999999997" y2="466.66666666666686" stroke-linecap="square" stroke-width="3" stroke="#333333"/><line x1="199.99999999999997" y1="483.33333333333354" x2="216.66666666666663" y2="466.66666666666686" stroke-linecap="square" stroke-width="3" stroke="#333333"/><line x1="216.66666666666663" y1="466.66666666666686" x2="233.3333333333333" y2="483.33333333333354" stroke-linecap="square" stroke-width="3" stroke="#333333"/><line x1="233.3333333333333" y1="466.66666666666686" x2="249.99999999999994" y2="483.33333333333354" stroke-linecap="square" stroke-width="3" stroke="#333333"/><line x1="249.99999999999994" y1="483.33333333333354" x2="266.66666666666663" y2="466.66666666666686" stroke-linecap="square" stroke-width="3" stroke="#333333"/><line x1="266.66666666666663" y1="483.33333333333354" x2="283.3333333333333" y2="466.66666666666686" stroke-linecap="square" stroke-width="3" stroke="#333333"/><line x1="283.3333333333333" y1="483.33333333333354" x2="300" y2="466.66666666666686" stroke-linecap="square" stroke-width="3" stroke="#333333"/><line x1="300" y1="483.33333333333354" x2="316.6666666666667" y2="466.66666666666686" stroke-linecap="square" stroke-width="3" stroke="#333333"/><line x1="316.6666666666667" y1="483.33333333333354" x2="333.33333333333337" y2="466.66666666666686" stroke-linecap="square" stroke-width="3" stroke="#333333"/><line x1="333.33333333333337" y1="466.66666666666686" x2="350.00000000000006" y2="483.33333333333354" stroke-linecap="square" stroke-width="3" stroke="#333333"/><line x1="0" y1="500.0000000000002" x2="16.666666666666668" y2="483.33333333333354" stroke-linecap="square" stroke-width="3" stroke="#333333"/><line x1="16.666666666666668" y1="500.0000000000002" x2="33.333333333333336" y2="483.33333333333354" stroke-linecap="square" stroke-width="3" stroke="#333333"/><line x1="33.333333333333336" y1="500.0000000000002" x2="50" y2="483.33333333333354" stroke-linecap="square" stroke-width="3" stroke="#333333"/><line x1="50" y1="483.33333333333354" x2="66.66666666666667" y2="500.0000000000002" stroke-linecap="square" stroke-width="3" stroke="#333333"/><line x1="66.66666666666667" y1="483.33333333333354" x2="83.33333333333334" y2="500.0000000000002" stroke-linecap="square" stroke-width="3" stroke="#333333"/><line x1="83.33333333333334" y1="483.33333333333354" x2="100.00000000000001" y2="500.0000000000002" stroke-linecap="square" stroke-width="3" stroke="#333333"/><line x1="100.00000000000001" y1="483.33333333333354" x2="116.66666666666669" y2="500.0000000000002" stroke-linecap="square" stroke-width="3" stroke="#333333"/><line x1="116.66666666666669" y1="500.0000000000002" x2="133.33333333333334" y2="483.33333333333354" stroke-linecap="square" stroke-width="3" stroke="#333333"/><line x1="133.33333333333334" y1="500.0000000000002" x2="150" y2="483.33333333333354" stroke-linecap="square" stroke-width="3" stroke="#333333"/><line x1="150" y1="500.0000000000002" x2="166.66666666666666" y2="483.33333333333354" stroke-linecap="square" stroke-width="3" stroke="#333333"/><line x1="166.66666666666666" y1="500.0000000000002" x2="183.33333333333331" y2="483.33333333333354" stroke-linecap="square" stroke-width="3" stroke="#333333"/><line x1="183.33333333333331" y1="483.33333333333354" x2="199.99999999999997" y2="500.0000000000002" stroke-linecap="square" stroke-width="3" stroke="#333333"/><line x1="199.99999999999997" y1="483.33333333333354" x2="216.66666666666663" y2="500.0000000000002" stroke-linecap="square" stroke-width="3" stroke="#333333"/><line x1="216.66666666666663" y1="483.33333333333354" x2="233.3333333333333" y2="500.0000000000002" stroke-linecap="square" stroke-width="3" stroke="#333333"/><line x1="233.3333333333333" y1="500.0000000000002" x2="249.99999999999994" y2="483.33333333333354" stroke-linecap="square" stroke-width="3" stroke="#333333"/><line x1="249.99999999999994" y1="500.0000000000002" x2="266.66666666666663" y2="483.33333333333354" stroke-linecap="square" stroke-width="3" stroke="#333333"/><line x1="266.66666666666663" y1="500.0000000000002" x2="283.3333333333333" y2="483.33333333333354" stroke-linecap="square" stroke-width="3" stroke="#333333"/><line x1="283.3333333333333" y1="483.33333333333354" x2="300" y2="500.0000000000002" stroke-linecap="square" stroke-width="3" stroke="#333333"/><line x1="300" y1="500.0000000000002" x2="316.6666666666667" y2="483.33333333333354" stroke-linecap="square" stroke-width="3" stroke="#333333"/><line x1="316.6666666666667" y1="500.0000000000002" x2="333.33333333333337" y2="483.33333333333354" stroke-linecap="square" stroke-width="3" stroke="#333333"/><line x1="333.33333333333337" y1="500.0000000000002" x2="350.00000000000006" y2="483.33333333333354" stroke-linecap="square" stroke-width="3" stroke="#333333"/></svg>