<svg id="canvas" height="auto" xmlns="http://www.w3.org/2000/svg" version="1.1" xmlns:xlink="http://www.w3.org/1999/xlink" viewBox="0 0 350 500" width="auto" style="width: auto; height: auto;"><rect width="350" height="500" fill="transparent"/><line x1="0" y1="0" x2="26.923076923076923" y2="26.923076923076923" stroke-linecap="square" stroke-width="3" stroke="#333333"/><line x1="26.923076923076923" y1="0" x2="53.84615384615385" y2="26.923076923076923" stroke-linecap="square" stroke-width="3" stroke="#333333"/><line x1="53.84615384615385" y1="26.923076923076923" x2="80.76923076923077" y2="0" stroke-linecap="square" stroke-width="3" stroke="#333333"/><line x1="80.76923076923077" y1="0" x2="107.6923076923077" y2="26.923076923076923" stroke-linecap="square" stroke-width="3" stroke="#333333"/><line x1="107.6923076923077" y1="0" x2="134.6153846153846" y2="26.923076923076923" stroke-linecap="square" stroke-width="3" stroke="#333333"/><line x1="134.6153846153846" y1="0" x2="161.53846153846155" y2="26.923076923076923" stroke-linecap="square" stroke-width="3" stroke="#333333"/><line x1="161.53846153846155" y1="0" x2="188.46153846153848" y2="26.923076923076923" stroke-linecap="square" stroke-width="3" stroke="#333333"/><line x1="188.46153846153848" y1="26.923076923076923" x2="215.38461538461542" y2="0" stroke-linecap="square" stroke-width="3" stroke="#333333"/><line x1="215.38461538461542" y1="26.923076923076923" x2="242.30769230769235" y2="0" stroke-linecap="square" stroke-width="3" stroke="#333333"/><line x1="242.30769230769235" y1="26.923076923076923" x2="269.2307692307693" y2="0" stroke-linecap="square" stroke-width="3" stroke="#333333"/><line x1="269.2307692307693" y1="0" x2="296.1538461538462" y2="26.923076923076923" stroke-linecap="square" stroke-width="3" stroke="#333333"/><line x1="296.1538461538462" y1="26.923076923076923" x2="323.0769230769231" y2="0" stroke-linecap="square" stroke-width="3" stroke="#333333"/><line x1="323.0769230769231" y1="26.923076923076923" x2="350" y2="0" stroke-linecap="square" stroke-width="3" stroke="#333333"/><line x1="0" y1="26.923076923076923" x2="26.923076923076923" y2="53.84615384615385" stroke-linecap="square" stroke-width="3" stroke="#333333"/><line x1="26.923076923076923" y1="53.84615384615385" x2="53.84615384615385" y2="26.923076923076923" stroke-linecap="square" stroke-width="3" stroke="#333333"/><line x1="53.84615384615385" y1="53.84615384615385" x2="80.76923076923077" y2="26.923076923076923" stroke-linecap="square" stroke-width="3" stroke="#333333"/><line x1="80.76923076923077" y1="53.84615384615385" x2="107.6923076923077" y2="26.923076923076923" stroke-linecap="square" stroke-width="3" stroke="#333333"/><line x1="107.6923076923077" y1="53.84615384615385" x2="134.6153846153846" y2="26.923076923076923" stroke-linecap="square" stroke-width="3" stroke="#333333"/><line x1="134.6153846153846" y1="53.84615384615385" x2="161.53846153846155" y2="26.923076923076923" stroke-linecap="square" stroke-width="3" stroke="#333333"/><line x1="161.53846153846155" y1="53.84615384615385" x2="188.46153846153848" y2="26.923076923076923" stroke-linecap="square" stroke-width="3" stroke="#333333"/><line x1="188.46153846153848" y1="26.923076923076923" x2="215.38461538461542" y2="53.84615384615385" stroke-linecap="square" stroke-width="3" stroke="#333333"/><line x1="215.38461538461542" y1="26.923076923076923" x2="242.30769230769235" y2="53.84615384615385" stroke-linecap="square" stroke-width="3" stroke="#333333"/><line x1="242.30769230769235" y1="53.84615384615385" x2="269.2307692307693" y2="26.923076923076923" stroke-linecap="square" stroke-width="3" stroke="#333333"/><line x1="269.2307692307693" y1="26.923076923076923" x2="296.1538461538462" y2="53.84615384615385" stroke-linecap="square" stroke-width="3" stroke="#333333"/><line x1="296.1538461538462" y1="26.923076923076923" x2="323.0769230769231" y2="53.84615384615385" stroke-linecap="square" stroke-width="3" stroke="#333333"/><line x1="323.0769230769231" y1="53.84615384615385" x2="350" y2="26.923076923076923" stroke-linecap="square" stroke-width="3" stroke="#333333"/><line x1="0" y1="53.84615384615385" x2="26.923076923076923" y2="80.76923076923077" stroke-linecap="square" stroke-width="3" stroke="#333333"/><line x1="26.923076923076923" y1="53.84615384615385" x2="53.84615384615385" y2="80.76923076923077" stroke-linecap="square" stroke-width="3" stroke="#333333"/><line x1="53.84615384615385" y1="80.76923076923077" x2="80.76923076923077" y2="53.84615384615385" stroke-linecap="square" stroke-width="3" stroke="#333333"/><line x1="80.76923076923077" y1="53.84615384615385" x2="107.6923076923077" y2="80.76923076923077" stroke-linecap="square" stroke-width="3" stroke="#333333"/><line x1="107.6923076923077" y1="80.76923076923077" x2="134.6153846153846" y2="53.84615384615385" stroke-linecap="square" stroke-width="3" stroke="#333333"/><line x1="134.6153846153846" y1="53.84615384615385" x2="161.53846153846155" y2="80.76923076923077" stroke-linecap="square" stroke-width="3" stroke="#333333"/><line x1="161.53846153846155" y1="80.76923076923077" x2="188.46153846153848" y2="53.84615384615385" stroke-linecap="square" stroke-width="3" stroke="#333333"/><line x1="188.46153846153848" y1="80.76923076923077" x2="215.38461538461542" y2="53.84615384615385" stroke-linecap="square" stroke-width="3" stroke="#333333"/><line x1="215.38461538461542" y1="80.76923076923077" x2="242.30769230769235" y2="53.84615384615385" stroke-linecap="square" stroke-width="3" stroke="#333333"/><line x1="242.30769230769235" y1="53.84615384615385" x2="269.2307692307693" y2="80.76923076923077" stroke-linecap="square" stroke-width="3" stroke="#333333"/><line x1="269.2307692307693" y1="53.84615384615385" x2="296.1538461538462" y2="80.76923076923077" stroke-linecap="square" stroke-width="3" stroke="#333333"/><line x1="296.1538461538462" y1="53.84615384615385" x2="323.0769230769231" y2="80.76923076923077" stroke-linecap="square" stroke-width="3" stroke="#333333"/><line x1="323.0769230769231" y1="80.76923076923077" x2="350" y2="53.84615384615385" stroke-linecap="square" stroke-width="3" stroke="#333333"/><line x1="0" y1="80.76923076923077" x2="26.923076923076923" y2="107.6923076923077" stroke-linecap="square" stroke-width="3" stroke="#333333"/><line x1="26.923076923076923" y1="107.6923076923077" x2="53.84615384615385" y2="80.76923076923077" stroke-linecap="square" stroke-width="3" stroke="#333333"/><line x1="53.84615384615385" y1="80.76923076923077" x2="80.76923076923077" y2="107.6923076923077" stroke-linecap="square" stroke-width="3" stroke="#333333"/><line x1="80.76923076923077" y1="107.6923076923077" x2="107.6923076923077" y2="80.76923076923077" stroke-linecap="square" stroke-width="3" stroke="#333333"/><line x1="107.6923076923077" y1="107.6923076923077" x2="134.6153846153846" y2="80.76923076923077" stroke-linecap="square" stroke-width="3" stroke="#333333"/><line x1="134.6153846153846" y1="80.76923076923077" x2="161.53846153846155" y2="107.6923076923077" stroke-linecap="square" stroke-width="3" stroke="#333333"/><line x1="161.53846153846155" y1="80.76923076923077" x2="188.46153846153848" y2="107.6923076923077" stroke-linecap="square" stroke-width="3" stroke="#333333"/><line x1="188.46153846153848" y1="80.76923076923077" x2="215.38461538461542" y2="107.6923076923077" stroke-linecap="square" stroke-width="3" stroke="#333333"/><line x1="215.38461538461542" y1="80.76923076923077" x2="242.30769230769235" y2="107.6923076923077" stroke-linecap="square" stroke-width="3" stroke="#333333"/><line x1="242.30769230769235" y1="107.6923076923077" x2="269.2307692307693" y2="80.76923076923077" stroke-linecap="square" stroke-width="3" stroke="#333333"/><line x1="269.2307692307693" y1="80.76923076923077" x2="296.1538461538462" y2="107.6923076923077" stroke-linecap="square" stroke-width="3" stroke="#333333"/><line x1="296.1538461538462" y1="107.6923076923077" x2="323.0769230769231" y2="80.76923076923077" stroke-linecap="square" stroke-width="3" stroke="#333333"/><line x1="323.0769230769231" y1="107.6923076923077" x2="350" y2="80.76923076923077" stroke-linecap="square" stroke-width="3" stroke="#333333"/><line x1="0" y1="107.6923076923077" x2="26.923076923076923" y2="134.6153846153846" stroke-linecap="square" stroke-width="3" stroke="#333333"/><line x1="26.923076923076923" y1="107.6923076923077" x2="53.84615384615385" y2="134.6153846153846" stroke-linecap="square" stroke-width="3" stroke="#333333"/><line x1="53.84615384615385" y1="107.6923076923077" x2="80.76923076923077" y2="134.6153846153846" stroke-linecap="square" stroke-width="3" stroke="#333333"/><line x1="80.76923076923077" y1="134.6153846153846" x2="107.6923076923077" y2="107.6923076923077" stroke-linecap="square" stroke-width="3" stroke="#333333"/><line x1="107.6923076923077" y1="134.6153846153846" x2="134.6153846153846" y2="107.6923076923077" stroke-linecap="square" stroke-width="3" stroke="#333333"/><line x1="134.6153846153846" y1="107.6923076923077" x2="161.53846153846155" y2="134.6153846153846" stroke-linecap="square" stroke-width="3" stroke="#333333"/><line x1="161.53846153846155" y1="107.6923076923077" x2="188.46153846153848" y2="134.6153846153846" stroke-linecap="square" stroke-width="3" stroke="#333333"/><line x1="188.46153846153848" y1="134.6153846153846" x2="215.38461538461542" y2="107.6923076923077" stroke-linecap="square" stroke-width="3" stroke="#333333"/><line x1="215.38461538461542" y1="134.6153846153846" x2="242.30769230769235" y2="107.6923076923077" stroke-linecap="square" stroke-width="3" stroke="#333333"/><line x1="242.30769230769235" y1="107.6923076923077" x2="269.2307692307693" y2="134.6153846153846" stroke-linecap="square" stroke-width="3" stroke="#333333"/><line x1="269.2307692307693" y1="107.6923076923077" x2="296.1538461538462" y2="134.6153846153846" stroke-linecap="square" stroke-width="3" stroke="#333333"/><line x1="296.1538461538462" y1="107.6923076923077" x2="323.0769230769231" y2="134.6153846153846" stroke-linecap="square" stroke-width="3" stroke="#333333"/><line x1="323.0769230769231" y1="134.6153846153846" x2="350" y2="107.6923076923077" stroke-linecap="square" stroke-width="3" stroke="#333333"/><line x1="0" y1="161.53846153846155" x2="26.923076923076923" y2="134.6153846153846" stroke-linecap="square" stroke-width="3" stroke="#333333"/><line x1="26.923076923076923" y1="161.53846153846155" x2="53.84615384615385" y2="134.6153846153846" stroke-linecap="square" stroke-width="3" stroke="#333333"/><line x1="53.84615384615385" y1="134.6153846153846" x2="80.76923076923077" y2="161.53846153846155" stroke-linecap="square" stroke-width="3" stroke="#333333"/><line x1="80.76923076923077" y1="161.53846153846155" x2="107.6923076923077" y2="134.6153846153846" stroke-linecap="square" stroke-width="3" stroke="#333333"/><line x1="107.6923076923077" y1="134.6153846153846" x2="134.6153846153846" y2="161.53846153846155" stroke-linecap="square" stroke-width="3" stroke="#333333"/><line x1="134.6153846153846" y1="161.53846153846155" x2="161.53846153846155" y2="134.6153846153846" stroke-linecap="square" stroke-width="3" stroke="#333333"/><line x1="161.53846153846155" y1="161.53846153846155" x2="188.46153846153848" y2="134.6153846153846" stroke-linecap="square" stroke-width="3" stroke="#333333"/><line x1="188.46153846153848" y1="134.6153846153846" x2="215.38461538461542" y2="161.53846153846155" stroke-linecap="square" stroke-width="3" stroke="#333333"/><line x1="215.38461538461542" y1="161.53846153846155" x2="242.30769230769235" y2="134.6153846153846" stroke-linecap="square" stroke-width="3" stroke="#333333"/><line x1="242.30769230769235" y1="134.6153846153846" x2="269.2307692307693" y2="161.53846153846155" stroke-linecap="square" stroke-width="3" stroke="#333333"/><line x1="269.2307692307693" y1="161.53846153846155" x2="296.1538461538462" y2="134.6153846153846" stroke-linecap="square" stroke-width="3" stroke="#333333"/><line x1="296.1538461538462" y1="161.53846153846155" x2="323.0769230769231" y2="134.6153846153846" stroke-linecap="square" stroke-width="3" stroke="#333333"/><line x1="323.0769230769231" y1="161.53846153846155" x2="350" y2="134.6153846153846" stroke-linecap="square" stroke-width="3" stroke="#333333"/><line x1="0" y1="188.46153846153848" x2="26.923076923076923" y2="161.53846153846155" stroke-linecap="square" stroke-width="3" stroke="#333333"/><line x1="26.923076923076923" y1="188.46153846153848" x2="53.84615384615385" y2="161.53846153846155" stroke-linecap="square" stroke-width="3" stroke="#333333"/><line x1="53.84615384615385" y1="188.46153846153848" x2="80.76923076923077" y2="161.53846153846155" stroke-linecap="square" stroke-width="3" stroke="#333333"/><line x1="80.76923076923077" y1="188.46153846153848" x2="107.6923076923077" y2="161.53846153846155" stroke-linecap="square" stroke-width="3" stroke="#333333"/><line x1="107.6923076923077" y1="188.46153846153848" x2="134.6153846153846" y2="161.53846153846155" stroke-linecap="square" stroke-width="3" stroke="#333333"/><line x1="134.6153846153846" y1="188.46153846153848" x2="161.53846153846155" y2="161.53846153846155" stroke-linecap="square" stroke-width="3" stroke="#333333"/><line x1="161.53846153846155" y1="161.53846153846155" x2="188.46153846153848" y2="188.46153846153848" stroke-linecap="square" stroke-width="3" stroke="#333333"/><line x1="188.46153846153848" y1="188.46153846153848" x2="215.38461538461542" y2="161.53846153846155" stroke-linecap="square" stroke-width="3" stroke="#333333"/><line x1="215.38461538461542" y1="161.53846153846155" x2="242.30769230769235" y2="188.46153846153848" stroke-linecap="square" stroke-width="3" stroke="#333333"/><line x1="242.30769230769235" y1="188.46153846153848" x2="269.2307692307693" y2="161.53846153846155" stroke-linecap="square" stroke-width="3" stroke="#333333"/><line x1="269.2307692307693" y1="161.53846153846155" x2="296.1538461538462" y2="188.46153846153848" stroke-linecap="square" stroke-width="3" stroke="#333333"/><line x1="296.1538461538462" y1="188.46153846153848" x2="323.0769230769231" y2="161.53846153846155" stroke-linecap="square" stroke-width="3" stroke="#333333"/><line x1="323.0769230769231" y1="161.53846153846155" x2="350" y2="188.46153846153848" stroke-linecap="square" stroke-width="3" stroke="#333333"/><line x1="0" y1="215.38461538461542" x2="26.923076923076923" y2="188.46153846153848" stroke-linecap="square" stroke-width="3" stroke="#333333"/><line x1="26.923076923076923" y1="215.38461538461542" x2="53.84615384615385" y2="188.46153846153848" stroke-linecap="square" stroke-width="3" stroke="#333333"/><line x1="53.84615384615385" y1="215.38461538461542" x2="80.76923076923077" y2="188.46153846153848" stroke-linecap="square" stroke-width="3" stroke="#333333"/><line x1="80.76923076923077" y1="188.46153846153848" x2="107.6923076923077" y2="215.38461538461542" stroke-linecap="square" stroke-width="3" stroke="#333333"/><line x1="107.6923076923077" y1="188.46153846153848" x2="134.6153846153846" y2="215.38461538461542" stroke-linecap="square" stroke-width="3" stroke="#333333"/><line x1="134.6153846153846" y1="215.38461538461542" x2="161.53846153846155" y2="188.46153846153848" stroke-linecap="square" stroke-width="3" stroke="#333333"/><line x1="161.53846153846155" y1="215.38461538461542" x2="188.46153846153848" y2="188.46153846153848" stroke-linecap="square" stroke-width="3" stroke="#333333"/><line x1="188.46153846153848" y1="188.46153846153848" x2="215.38461538461542" y2="215.38461538461542" stroke-linecap="square" stroke-width="3" stroke="#333333"/><line x1="215.38461538461542" y1="188.46153846153848" x2="242.30769230769235" y2="215.38461538461542" stroke-linecap="square" stroke-width="3" stroke="#333333"/><line x1="242.30769230769235" y1="188.46153846153848" x2="269.2307692307693" y2="215.38461538461542" stroke-linecap="square" stroke-width="3" stroke="#333333"/><line x1="269.2307692307693" y1="215.38461538461542" x2="296.1538461538462" y2="188.46153846153848" stroke-linecap="square" stroke-width="3" stroke="#333333"/><line x1="296.1538461538462" y1="215.38461538461542" x2="323.0769230769231" y2="188.46153846153848" stroke-linecap="square" stroke-width="3" stroke="#333333"/><line x1="323.0769230769231" y1="215.38461538461542" x2="350" y2="188.46153846153848" stroke-linecap="square" stroke-width="3" stroke="#333333"/><line x1="0" y1="215.38461538461542" x2="26.923076923076923" y2="242.30769230769235" stroke-linecap="square" stroke-width="3" stroke="#333333"/><line x1="26.923076923076923" y1="242.30769230769235" x2="53.84615384615385" y2="215.38461538461542" stroke-linecap="square" stroke-width="3" stroke="#333333"/><line x1="53.84615384615385" y1="242.30769230769235" x2="80.76923076923077" y2="215.38461538461542" stroke-linecap="square" stroke-width="3" stroke="#333333"/><line x1="80.76923076923077" y1="242.30769230769235" x2="107.6923076923077" y2="215.38461538461542" stroke-linecap="square" stroke-width="3" stroke="#333333"/><line x1="107.6923076923077" y1="215.38461538461542" x2="134.6153846153846" y2="242.30769230769235" stroke-linecap="square" stroke-width="3" stroke="#333333"/><line x1="134.6153846153846" y1="242.30769230769235" x2="161.53846153846155" y2="215.38461538461542" stroke-linecap="square" stroke-width="3" stroke="#333333"/><line x1="161.53846153846155" y1="215.38461538461542" x2="188.46153846153848" y2="242.30769230769235" stroke-linecap="square" stroke-width="3" stroke="#333333"/><line x1="188.46153846153848" y1="215.38461538461542" x2="215.38461538461542" y2="242.30769230769235" stroke-linecap="square" stroke-width="3" stroke="#333333"/><line x1="215.38461538461542" y1="215.38461538461542" x2="242.30769230769235" y2="242.30769230769235" stroke-linecap="square" stroke-width="3" stroke="#333333"/><line x1="242.30769230769235" y1="242.30769230769235" x2="269.2307692307693" y2="215.38461538461542" stroke-linecap="square" stroke-width="3" stroke="#333333"/><line x1="269.2307692307693" y1="215.38461538461542" x2="296.1538461538462" y2="242.30769230769235" stroke-linecap="square" stroke-width="3" stroke="#333333"/><line x1="296.1538461538462" y1="215.38461538461542" x2="323.0769230769231" y2="242.30769230769235" stroke-linecap="square" stroke-width="3" stroke="#333333"/><line x1="323.0769230769231" y1="215.38461538461542" x2="350" y2="242.30769230769235" stroke-linecap="square" stroke-width="3" stroke="#333333"/><line x1="0" y1="242.30769230769235" x2="26.923076923076923" y2="269.2307692307693" stroke-linecap="square" stroke-width="3" stroke="#333333"/><line x1="26.923076923076923" y1="242.30769230769235" x2="53.84615384615385" y2="269.2307692307693" stroke-linecap="square" stroke-width="3" stroke="#333333"/><line x1="53.84615384615385" y1="269.2307692307693" x2="80.76923076923077" y2="242.30769230769235" stroke-linecap="square" stroke-width="3" stroke="#333333"/><line x1="80.76923076923077" y1="242.30769230769235" x2="107.6923076923077" y2="269.2307692307693" stroke-linecap="square" stroke-width="3" stroke="#333333"/><line x1="107.6923076923077" y1="269.2307692307693" x2="134.6153846153846" y2="242.30769230769235" stroke-linecap="square" stroke-width="3" stroke="#333333"/><line x1="134.6153846153846" y1="269.2307692307693" x2="161.53846153846155" y2="242.30769230769235" stroke-linecap="square" stroke-width="3" stroke="#333333"/><line x1="161.53846153846155" y1="269.2307692307693" x2="188.46153846153848" y2="242.30769230769235" stroke-linecap="square" stroke-width="3" stroke="#333333"/><line x1="188.46153846153848" y1="269.2307692307693" x2="215.38461538461542" y2="242.30769230769235" stroke-linecap="square" stroke-width="3" stroke="#333333"/><line x1="215.38461538461542" y1="269.2307692307693" x2="242.30769230769235" y2="242.30769230769235" stroke-linecap="square" stroke-width="3" stroke="#333333"/><line x1="242.30769230769235" y1="242.30769230769235" x2="269.2307692307693" y2="269.2307692307693" stroke-linecap="square" stroke-width="3" stroke="#333333"/><line x1="269.2307692307693" y1="242.30769230769235" x2="296.1538461538462" y2="269.2307692307693" stroke-linecap="square" stroke-width="3" stroke="#333333"/><line x1="296.1538461538462" y1="242.30769230769235" x2="323.0769230769231" y2="269.2307692307693" stroke-linecap="square" stroke-width="3" stroke="#333333"/><line x1="323.0769230769231" y1="242.30769230769235" x2="350" y2="269.2307692307693" stroke-linecap="square" stroke-width="3" stroke="#333333"/><line x1="0" y1="269.2307692307693" x2="26.923076923076923" y2="296.1538461538462" stroke-linecap="square" stroke-width="3" stroke="#333333"/><line x1="26.923076923076923" y1="269.2307692307693" x2="53.84615384615385" y2="296.1538461538462" stroke-linecap="square" stroke-width="3" stroke="#333333"/><line x1="53.84615384615385" y1="296.1538461538462" x2="80.76923076923077" y2="269.2307692307693" stroke-linecap="square" stroke-width="3" stroke="#333333"/><line x1="80.76923076923077" y1="269.2307692307693" x2="107.6923076923077" y2="296.1538461538462" stroke-linecap="square" stroke-width="3" stroke="#333333"/><line x1="107.6923076923077" y1="269.2307692307693" x2="134.6153846153846" y2="296.1538461538462" stroke-linecap="square" stroke-width="3" stroke="#333333"/><line x1="134.6153846153846" y1="269.2307692307693" x2="161.53846153846155" y2="296.1538461538462" stroke-linecap="square" stroke-width="3" stroke="#333333"/><line x1="161.53846153846155" y1="269.2307692307693" x2="188.46153846153848" y2="296.1538461538462" stroke-linecap="square" stroke-width="3" stroke="#333333"/><line x1="188.46153846153848" y1="296.1538461538462" x2="215.38461538461542" y2="269.2307692307693" stroke-linecap="square" stroke-width="3" stroke="#333333"/><line x1="215.38461538461542" y1="269.2307692307693" x2="242.30769230769235" y2="296.1538461538462" stroke-linecap="square" stroke-width="3" stroke="#333333"/><line x1="242.30769230769235" y1="269.2307692307693" x2="269.2307692307693" y2="296.1538461538462" stroke-linecap="square" stroke-width="3" stroke="#333333"/><line x1="269.2307692307693" y1="269.2307692307693" x2="296.1538461538462" y2="296.1538461538462" stroke-linecap="square" stroke-width="3" stroke="#333333"/><line x1="296.1538461538462" y1="269.2307692307693" x2="323.0769230769231" y2="296.1538461538462" stroke-linecap="square" stroke-width="3" stroke="#333333"/><line x1="323.0769230769231" y1="296.1538461538462" x2="350" y2="269.2307692307693" stroke-linecap="square" stroke-width="3" stroke="#333333"/><line x1="0" y1="296.1538461538462" x2="26.923076923076923" y2="323.0769230769231" stroke-linecap="square" stroke-width="3" stroke="#333333"/><line x1="26.923076923076923" y1="323.0769230769231" x2="53.84615384615385" y2="296.1538461538462" stroke-linecap="square" stroke-width="3" stroke="#333333"/><line x1="53.84615384615385" y1="323.0769230769231" x2="80.76923076923077" y2="296.1538461538462" stroke-linecap="square" stroke-width="3" stroke="#333333"/><line x1="80.76923076923077" y1="323.0769230769231" x2="107.6923076923077" y2="296.1538461538462" stroke-linecap="square" stroke-width="3" stroke="#333333"/><line x1="107.6923076923077" y1="296.1538461538462" x2="134.6153846153846" y2="323.0769230769231" stroke-linecap="square" stroke-width="3" stroke="#333333"/><line x1="134.6153846153846" y1="323.0769230769231" x2="161.53846153846155" y2="296.1538461538462" stroke-linecap="square" stroke-width="3" stroke="#333333"/><line x1="161.53846153846155" y1="296.1538461538462" x2="188.46153846153848" y2="323.0769230769231" stroke-linecap="square" stroke-width="3" stroke="#333333"/><line x1="188.46153846153848" y1="323.0769230769231" x2="215.38461538461542" y2="296.1538461538462" stroke-linecap="square" stroke-width="3" stroke="#333333"/><line x1="215.38461538461542" y1="323.0769230769231" x2="242.30769230769235" y2="296.1538461538462" stroke-linecap="square" stroke-width="3" stroke="#333333"/><line x1="242.30769230769235" y1="323.0769230769231" x2="269.2307692307693" y2="296.1538461538462" stroke-linecap="square" stroke-width="3" stroke="#333333"/><line x1="269.2307692307693" y1="323.0769230769231" x2="296.1538461538462" y2="296.1538461538462" stroke-linecap="square" stroke-width="3" stroke="#333333"/><line x1="296.1538461538462" y1="323.0769230769231" x2="323.0769230769231" y2="296.1538461538462" stroke-linecap="square" stroke-width="3" stroke="#333333"/><line x1="323.0769230769231" y1="296.1538461538462" x2="350" y2="323.0769230769231" stroke-linecap="square" stroke-width="3" stroke="#333333"/><line x1="0" y1="350" x2="26.923076923076923" y2="323.0769230769231" stroke-linecap="square" stroke-width="3" stroke="#333333"/><line x1="26.923076923076923" y1="350" x2="53.84615384615385" y2="323.0769230769231" stroke-linecap="square" stroke-width="3" stroke="#333333"/><line x1="53.84615384615385" y1="323.0769230769231" x2="80.76923076923077" y2="350" stroke-linecap="square" stroke-width="3" stroke="#333333"/><line x1="80.76923076923077" y1="350" x2="107.6923076923077" y2="323.0769230769231" stroke-linecap="square" stroke-width="3" stroke="#333333"/><line x1="107.6923076923077" y1="350" x2="134.6153846153846" y2="323.0769230769231" stroke-linecap="square" stroke-width="3" stroke="#333333"/><line x1="134.6153846153846" y1="350" x2="161.53846153846155" y2="323.0769230769231" stroke-linecap="square" stroke-width="3" stroke="#333333"/><line x1="161.53846153846155" y1="350" x2="188.46153846153848" y2="323.0769230769231" stroke-linecap="square" stroke-width="3" stroke="#333333"/><line x1="188.46153846153848" y1="350" x2="215.38461538461542" y2="323.0769230769231" stroke-linecap="square" stroke-width="3" stroke="#333333"/><line x1="215.38461538461542" y1="323.0769230769231" x2="242.30769230769235" y2="350" stroke-linecap="square" stroke-width="3" stroke="#333333"/><line x1="242.30769230769235" y1="350" x2="269.2307692307693" y2="323.0769230769231" stroke-linecap="square" stroke-width="3" stroke="#333333"/><line x1="269.2307692307693" y1="350" x2="296.1538461538462" y2="323.0769230769231" stroke-linecap="square" stroke-width="3" stroke="#333333"/><line x1="296.1538461538462" y1="323.0769230769231" x2="323.0769230769231" y2="350" stroke-linecap="square" stroke-width="3" stroke="#333333"/><line x1="323.0769230769231" y1="350" x2="350" y2="323.0769230769231" stroke-linecap="square" stroke-width="3" stroke="#333333"/><line x1="0" y1="350" x2="26.923076923076923" y2="376.9230769230769" stroke-linecap="square" stroke-width="3" stroke="#333333"/><line x1="26.923076923076923" y1="350" x2="53.84615384615385" y2="376.9230769230769" stroke-linecap="square" stroke-width="3" stroke="#333333"/><line x1="53.84615384615385" y1="350" x2="80.76923076923077" y2="376.9230769230769" stroke-linecap="square" stroke-width="3" stroke="#333333"/><line x1="80.76923076923077" y1="350" x2="107.6923076923077" y2="376.9230769230769" stroke-linecap="square" stroke-width="3" stroke="#333333"/><line x1="107.6923076923077" y1="350" x2="134.6153846153846" y2="376.9230769230769" stroke-linecap="square" stroke-width="3" stroke="#333333"/><line x1="134.6153846153846" y1="350" x2="161.53846153846155" y2="376.9230769230769" stroke-linecap="square" stroke-width="3" stroke="#333333"/><line x1="161.53846153846155" y1="350" x2="188.46153846153848" y2="376.9230769230769" stroke-linecap="square" stroke-width="3" stroke="#333333"/><line x1="188.46153846153848" y1="350" x2="215.38461538461542" y2="376.9230769230769" stroke-linecap="square" stroke-width="3" stroke="#333333"/><line x1="215.38461538461542" y1="376.9230769230769" x2="242.30769230769235" y2="350" stroke-linecap="square" stroke-width="3" stroke="#333333"/><line x1="242.30769230769235" y1="376.9230769230769" x2="269.2307692307693" y2="350" stroke-linecap="square" stroke-width="3" stroke="#333333"/><line x1="269.2307692307693" y1="376.9230769230769" x2="296.1538461538462" y2="350" stroke-linecap="square" stroke-width="3" stroke="#333333"/><line x1="296.1538461538462" y1="376.9230769230769" x2="323.0769230769231" y2="350" stroke-linecap="square" stroke-width="3" stroke="#333333"/><line x1="323.0769230769231" y1="350" x2="350" y2="376.9230769230769" stroke-linecap="square" stroke-width="3" stroke="#333333"/><line x1="0" y1="376.9230769230769" x2="26.923076923076923" y2="403.8461538461538" stroke-linecap="square" stroke-width="3" stroke="#333333"/><line x1="26.923076923076923" y1="403.8461538461538" x2="53.84615384615385" y2="376.9230769230769" stroke-linecap="square" stroke-width="3" stroke="#333333"/><line x1="53.84615384615385" y1="403.8461538461538" x2="80.76923076923077" y2="376.9230769230769" stroke-linecap="square" stroke-width="3" stroke="#333333"/><line x1="80.76923076923077" y1="403.8461538461538" x2="107.6923076923077" y2="376.9230769230769" stroke-linecap="square" stroke-width="3" stroke="#333333"/><line x1="107.6923076923077" y1="376.9230769230769" x2="134.6153846153846" y2="403.8461538461538" stroke-linecap="square" stroke-width="3" stroke="#333333"/><line x1="134.6153846153846" y1="376.9230769230769" x2="161.53846153846155" y2="403.8461538461538" stroke-linecap="square" stroke-width="3" stroke="#333333"/><line x1="161.53846153846155" y1="376.9230769230769" x2="188.46153846153848" y2="403.8461538461538" stroke-linecap="square" stroke-width="3" stroke="#333333"/><line x1="188.46153846153848" y1="376.9230769230769" x2="215.38461538461542" y2="403.8461538461538" stroke-linecap="square" stroke-width="3" stroke="#333333"/><line x1="215.38461538461542" y1="376.9230769230769" x2="242.30769230769235" y2="403.8461538461538" stroke-linecap="square" stroke-width="3" stroke="#333333"/><line x1="242.30769230769235" y1="376.9230769230769" x2="269.2307692307693" y2="403.8461538461538" stroke-linecap="square" stroke-width="3" stroke="#333333"/><line x1="269.2307692307693" y1="403.8461538461538" x2="296.1538461538462" y2="376.9230769230769" stroke-linecap="square" stroke-width="3" stroke="#333333"/><line x1="296.1538461538462" y1="403.8461538461538" x2="323.0769230769231" y2="376.9230769230769" stroke-linecap="square" stroke-width="3" stroke="#333333"/><line x1="323.0769230769231" y1="376.9230769230769" x2="350" y2="403.8461538461538" stroke-linecap="square" stroke-width="3" stroke="#333333"/><line x1="0" y1="403.8461538461538" x2="26.923076923076923" y2="430.7692307692307" stroke-linecap="square" stroke-width="3" stroke="#333333"/><line x1="26.923076923076923" y1="430.7692307692307" x2="53.84615384615385" y2="403.8461538461538" stroke-linecap="square" stroke-width="3" stroke="#333333"/><line x1="53.84615384615385" y1="430.7692307692307" x2="80.76923076923077" y2="403.8461538461538" stroke-linecap="square" stroke-width="3" stroke="#333333"/><line x1="80.76923076923077" y1="403.8461538461538" x2="107.6923076923077" y2="430.7692307692307" stroke-linecap="square" stroke-width="3" stroke="#333333"/><line x1="107.6923076923077" y1="430.7692307692307" x2="134.6153846153846" y2="403.8461538461538" stroke-linecap="square" stroke-width="3" stroke="#333333"/><line x1="134.6153846153846" y1="403.8461538461538" x2="161.53846153846155" y2="430.7692307692307" stroke-linecap="square" stroke-width="3" stroke="#333333"/><line x1="161.53846153846155" y1="430.7692307692307" x2="188.46153846153848" y2="403.8461538461538" stroke-linecap="square" stroke-width="3" stroke="#333333"/><line x1="188.46153846153848" y1="430.7692307692307" x2="215.38461538461542" y2="403.8461538461538" stroke-linecap="square" stroke-width="3" stroke="#333333"/><line x1="215.38461538461542" y1="430.7692307692307" x2="242.30769230769235" y2="403.8461538461538" stroke-linecap="square" stroke-width="3" stroke="#333333"/><line x1="242.30769230769235" y1="403.8461538461538" x2="269.2307692307693" y2="430.7692307692307" stroke-linecap="square" stroke-width="3" stroke="#333333"/><line x1="269.2307692307693" y1="403.8461538461538" x2="296.1538461538462" y2="430.7692307692307" stroke-linecap="square" stroke-width="3" stroke="#333333"/><line x1="296.1538461538462" y1="430.7692307692307" x2="323.0769230769231" y2="403.8461538461538" stroke-linecap="square" stroke-width="3" stroke="#333333"/><line x1="323.0769230769231" y1="403.8461538461538" x2="350" y2="430.7692307692307" stroke-linecap="square" stroke-width="3" stroke="#333333"/><line x1="0" y1="457.6923076923076" x2="26.923076923076923" y2="430.7692307692307" stroke-linecap="square" stroke-width="3" stroke="#333333"/><line x1="26.923076923076923" y1="457.6923076923076" x2="53.84615384615385" y2="430.7692307692307" stroke-linecap="square" stroke-width="3" stroke="#333333"/><line x1="53.84615384615385" y1="430.7692307692307" x2="80.76923076923077" y2="457.6923076923076" stroke-linecap="square" stroke-width="3" stroke="#333333"/><line x1="80.76923076923077" y1="457.6923076923076" x2="107.6923076923077" y2="430.7692307692307" stroke-linecap="square" stroke-width="3" stroke="#333333"/><line x1="107.6923076923077" y1="457.6923076923076" x2="134.6153846153846" y2="430.7692307692307" stroke-linecap="square" stroke-width="3" stroke="#333333"/><line x1="134.6153846153846" y1="457.6923076923076" x2="161.53846153846155" y2="430.7692307692307" stroke-linecap="square" stroke-width="3" stroke="#333333"/><line x1="161.53846153846155" y1="457.6923076923076" x2="188.46153846153848" y2="430.7692307692307" stroke-linecap="square" stroke-width="3" stroke="#333333"/><line x1="188.46153846153848" y1="457.6923076923076" x2="215.38461538461542" y2="430.7692307692307" stroke-linecap="square" stroke-width="3" stroke="#333333"/><line x1="215.38461538461542" y1="430.7692307692307" x2="242.30769230769235" y2="457.6923076923076" stroke-linecap="square" stroke-width="3" stroke="#333333"/><line x1="242.30769230769235" y1="457.6923076923076" x2="269.2307692307693" y2="430.7692307692307" stroke-linecap="square" stroke-width="3" stroke="#333333"/><line x1="269.2307692307693" y1="457.6923076923076" x2="296.1538461538462" y2="430.7692307692307" stroke-linecap="square" stroke-width="3" stroke="#333333"/><line x1="296.1538461538462" y1="457.6923076923076" x2="323.0769230769231" y2="430.7692307692307" stroke-linecap="square" stroke-width="3" stroke="#333333"/><line x1="323.0769230769231" y1="430.7692307692307" x2="350" y2="457.6923076923076" stroke-linecap="square" stroke-width="3" stroke="#333333"/><line x1="0" y1="457.6923076923076" x2="26.923076923076923" y2="484.6153846153845" stroke-linecap="square" stroke-width="3" stroke="#333333"/><line x1="26.923076923076923" y1="484.6153846153845" x2="53.84615384615385" y2="457.6923076923076" stroke-linecap="square" stroke-width="3" stroke="#333333"/><line x1="53.84615384615385" y1="484.6153846153845" x2="80.76923076923077" y2="457.6923076923076" stroke-linecap="square" stroke-width="3" stroke="#333333"/><line x1="80.76923076923077" y1="484.6153846153845" x2="107.6923076923077" y2="457.6923076923076" stroke-linecap="square" stroke-width="3" stroke="#333333"/><line x1="107.6923076923077" y1="484.6153846153845" x2="134.6153846153846" y2="457.6923076923076" stroke-linecap="square" stroke-width="3" stroke="#333333"/><line x1="134.6153846153846" y1="457.6923076923076" x2="161.53846153846155" y2="484.6153846153845" stroke-linecap="square" stroke-width="3" stroke="#333333"/><line x1="161.53846153846155" y1="457.6923076923076" x2="188.46153846153848" y2="484.6153846153845" stroke-linecap="square" stroke-width="3" stroke="#333333"/><line x1="188.46153846153848" y1="457.6923076923076" x2="215.38461538461542" y2="484.6153846153845" stroke-linecap="square" stroke-width="3" stroke="#333333"/><line x1="215.38461538461542" y1="484.6153846153845" x2="242.30769230769235" y2="457.6923076923076" stroke-linecap="square" stroke-width="3" stroke="#333333"/><line x1="242.30769230769235" y1="484.6153846153845" x2="269.2307692307693" y2="457.6923076923076" stroke-linecap="square" stroke-width="3" stroke="#333333"/><line x1="269.2307692307693" y1="457.6923076923076" x2="296.1538461538462" y2="484.6153846153845" stroke-linecap="square" stroke-width="3" stroke="#333333"/><line x1="296.1538461538462" y1="484.6153846153845" x2="323.0769230769231" y2="457.6923076923076" stroke-linecap="square" stroke-width="3" stroke="#333333"/><line x1="323.0769230769231" y1="484.6153846153845" x2="350" y2="457.6923076923076" stroke-linecap="square" stroke-width="3" stroke="#333333"/><line x1="0" y1="484.6153846153845" x2="26.923076923076923" y2="511.53846153846143" stroke-linecap="square" stroke-width="3" stroke="#333333"/><line x1="26.923076923076923" y1="511.53846153846143" x2="53.84615384615385" y2="484.6153846153845" stroke-linecap="square" stroke-width="3" stroke="#333333"/><line x1="53.84615384615385" y1="484.6153846153845" x2="80.76923076923077" y2="511.53846153846143" stroke-linecap="square" stroke-width="3" stroke="#333333"/><line x1="80.76923076923077" y1="484.6153846153845" x2="107.6923076923077" y2="511.53846153846143" stroke-linecap="square" stroke-width="3" stroke="#333333"/><line x1="107.6923076923077" y1="511.53846153846143" x2="134.6153846153846" y2="484.6153846153845" stroke-linecap="square" stroke-width="3" stroke="#333333"/><line x1="134.6153846153846" y1="511.53846153846143" x2="161.53846153846155" y2="484.6153846153845" stroke-linecap="square" stroke-width="3" stroke="#333333"/><line x1="161.53846153846155" y1="511.53846153846143" x2="188.46153846153848" y2="484.6153846153845" stroke-linecap="square" stroke-width="3" stroke="#333333"/><line x1="188.46153846153848" y1="484.6153846153845" x2="215.38461538461542" y2="511.53846153846143" stroke-linecap="square" stroke-width="3" stroke="#333333"/><line x1="215.38461538461542" y1="484.6153846153845" x2="242.30769230769235" y2="511.53846153846143" stroke-linecap="square" stroke-width="3" stroke="#333333"/><line x1="242.30769230769235" y1="484.6153846153845" x2="269.2307692307693" y2="511.53846153846143" stroke-linecap="square" stroke-width="3" stroke="#333333"/><line x1="269.2307692307693" y1="484.6153846153845" x2="296.1538461538462" y2="511.53846153846143" stroke-linecap="square" stroke-width="3" stroke="#333333"/><line x1="296.1538461538462" y1="511.53846153846143" x2="323.0769230769231" y2="484.6153846153845" stroke-linecap="square" stroke-width="3" stroke="#333333"/><line x1="323.0769230769231" y1="511.53846153846143" x2="350" y2="484.6153846153845" stroke-linecap="square" stroke-width="3" stroke="#333333"/></svg>